<?xml version="1.0" encoding="iso-8859-1"?>
<!-- Uploaded to: SVG Repo, www.svgrepo.com, Generator: SVG Repo Mixer Tools -->
<svg height="800px" width="800px" version="1.1" id="Layer_1" xmlns="http://www.w3.org/2000/svg" xmlns:xlink="http://www.w3.org/1999/xlink" 
	 viewBox="0 0 512.001 512.001" xml:space="preserve">
<path style="fill:#A8DA64;" d="M73.836,6.638c37.319-11.143,73.369-0.76,80.52,23.19s-17.304,52.4-54.622,63.543
	c-28.228,8.429-73.675-5.027-94.137-12.083c-2.529-0.872-4.483-2.909-5.249-5.473s-0.25-5.34,1.387-7.455
	C14.979,51.238,45.606,15.067,73.836,6.638z"/>
<path style="fill:#7FA24D;" d="M73.836,6.638c37.319-11.143,73.369-0.76,80.52,23.19C67.658,42.247,0.348,75.813,0.348,75.813
	c-0.765-2.564-0.249-5.339,1.388-7.455C14.98,51.238,45.606,15.067,73.836,6.638z"/>
<path style="fill:#533F29;" d="M226.429,10c-0.992-2.673-3.132-4.759-5.829-5.684c-2.697-0.925-5.667-0.587-8.092,0.912
	c-17.845,11.043-53.147,40.29-54.833,99.543l21.315,3.652c0,0,18.35-41.425,52.902-60.343c4.133-2.262,5.991-7.215,4.352-11.633
	L226.429,10z"/>
<path style="fill:#FFDC35;" d="M274.648,268.243c-22.221-26.647-34.433-60.248-34.433-94.946l0,0
	c0-43.499-35.263-78.761-78.761-78.761s-78.761,35.263-78.761,78.761c0,34.774-12.162,68.238-34.432,94.944
	c-21.304,25.547-34.12,58.417-34.12,94.281c0,81.36,65.955,147.313,147.315,147.313S308.77,443.881,308.77,362.522
	C308.768,326.66,295.951,293.79,274.648,268.243z"/>
<path style="fill:#FFAE33;" d="M274.648,268.243c-22.221-26.647-34.433-60.248-34.433-94.946c0-43.499-35.263-78.761-78.761-78.761
	v415.301c81.359,0,147.313-65.955,147.313-147.313C308.768,326.66,295.952,293.79,274.648,268.243z"/>
<path style="fill:#533F29;" d="M408.295,170.697c-0.924-2.488-2.916-4.43-5.426-5.291c-2.51-0.861-5.275-0.547-7.532,0.85
	c-16.61,10.279-49.47,37.502-51.04,92.656l19.84,3.399c0,0,17.08-38.559,49.242-56.168c3.847-2.106,5.576-6.716,4.05-10.828
	L408.295,170.697z"/>
<path style="fill:#FF4D00;" d="M459.541,240.241c-22.601-7.959-50.487-4.671-73.666,6.974c-25.251,12.686-55.02,12.665-80.276-0.015
	c-23.173-11.634-51.045-14.915-73.638-6.959c-41.509,14.616-62.781,61.612-47.514,104.968s69.872,185.156,141.561,162.114
	c8.322-2.675,14.806-11.076,19.744-23.138c4.938,12.063,11.422,20.464,19.744,23.138c71.688,23.041,126.293-118.758,141.56-162.114
	S501.05,254.857,459.541,240.241z"/>
<path style="fill:#B8000C;" d="M459.541,240.241c-22.601-7.959-50.487-4.671-73.666,6.974c-12.531,6.295-26.175,9.458-39.827,9.5
	v228.169c4.9,11.684,11.288,19.818,19.447,22.441c71.688,23.041,126.293-118.758,141.56-162.114
	C522.323,301.853,501.05,254.857,459.541,240.241z"/>
</svg>