<?xml version="1.0" encoding="iso-8859-1"?>
<!-- Uploaded to: SVG Repo, www.svgrepo.com, Generator: SVG Repo Mixer Tools -->
<svg height="800px" width="800px" version="1.1" id="Layer_1" xmlns="http://www.w3.org/2000/svg" xmlns:xlink="http://www.w3.org/1999/xlink" 
	 viewBox="0 0 511.99 511.99" xml:space="preserve">
<path style="fill:#FFCE54;" d="M159.996,389.528c-39.89,0-77.389-15.531-105.591-43.718c-28.203-28.219-43.749-65.718-43.749-105.6
	c0-39.89,15.546-77.389,43.749-105.591c28.202-28.203,65.701-43.733,105.591-43.733s77.389,15.531,105.592,43.733
	c28.202,28.202,43.748,65.701,43.748,105.591c0,39.882-15.546,77.381-43.748,105.6C237.385,373.997,199.886,389.528,159.996,389.528
	z"/>
<g>
	<path style="fill:#F6BB42;" d="M159.996,80.215C71.623,80.215,0,151.854,0,240.211c0,88.35,71.623,160.005,159.996,160.005
		s159.996-71.655,159.996-160.005C319.992,151.854,248.369,80.215,159.996,80.215z M258.056,338.248
		c-12.75,12.749-27.594,22.749-44.093,29.749c-17.078,7.219-35.249,10.875-53.968,10.875s-36.89-3.656-53.968-10.875
		c-16.499-7-31.343-17-44.093-29.749c-12.733-12.719-22.733-27.562-29.718-44.062c-7.219-17.094-10.875-35.241-10.875-53.976
		c0-18.733,3.656-36.89,10.875-53.967C39.2,169.728,49.2,154.9,61.934,142.166c12.75-12.75,27.594-22.75,44.093-29.734
		c17.078-7.219,35.249-10.89,53.968-10.89s36.89,3.671,53.968,10.89c16.499,6.984,31.343,16.984,44.093,29.734
		c12.734,12.734,22.734,27.562,29.718,44.077c7.219,17.078,10.875,35.234,10.875,53.967c0,18.734-3.656,36.882-10.875,53.976
		C280.791,310.686,270.791,325.529,258.056,338.248z"/>
	<path style="fill:#F6BB42;" d="M159.996,122.886c-64.811,0-117.341,52.53-117.341,117.325c0,64.788,52.53,117.317,117.341,117.317
		s117.342-52.529,117.342-117.317C277.338,175.415,224.806,122.886,159.996,122.886z M227.869,308.092
		c-18.124,18.124-42.233,28.124-67.873,28.124s-49.749-10-67.873-28.124c-18.141-18.125-28.125-42.241-28.125-67.882
		c0-25.64,9.984-49.749,28.125-67.873c18.124-18.14,42.233-28.124,67.873-28.124s49.749,9.984,67.873,28.124
		c18.141,18.124,28.125,42.233,28.125,67.873S246.01,289.967,227.869,308.092z"/>
	<path style="fill:#F6BB42;" d="M159.996,165.54c-41.233,0-74.654,33.437-74.654,74.67c0,41.226,33.421,74.663,74.654,74.663
		s74.654-33.438,74.654-74.663C234.65,198.977,201.229,165.54,159.996,165.54z M159.996,293.53
		c-29.405,0-53.343-23.914-53.343-53.319s23.938-53.327,53.343-53.327s53.343,23.921,53.343,53.327
		C213.339,269.616,189.401,293.53,159.996,293.53z"/>
</g>
<path style="fill:#FFCE54;" d="M351.992,346.654c-39.891,0-77.389-15.531-105.592-43.718c-28.202-28.219-43.749-65.71-43.749-105.6
	s15.547-77.389,43.749-105.591c28.203-28.202,65.701-43.733,105.592-43.733c39.889,0,77.389,15.531,105.591,43.733
	c28.202,28.202,43.749,65.701,43.749,105.591s-15.547,77.381-43.749,105.6C429.381,331.123,391.881,346.654,351.992,346.654z"/>
<g>
	<path style="fill:#F6BB42;" d="M351.992,37.341c-88.373,0-159.997,71.639-159.997,159.996c0,88.35,71.624,160.004,159.997,160.004
		s159.996-71.654,159.996-160.004C511.988,108.98,440.365,37.341,351.992,37.341z M450.052,295.374
		c-12.749,12.75-27.593,22.749-44.093,29.749c-17.078,7.219-35.249,10.875-53.967,10.875c-18.719,0-36.891-3.656-53.968-10.875
		c-16.499-7-31.343-16.999-44.093-29.749c-12.734-12.719-22.734-27.555-29.719-44.069c-7.218-17.078-10.874-35.233-10.874-53.968
		c0-18.733,3.656-36.89,10.874-53.967c6.984-16.516,16.984-31.343,29.719-44.077c12.75-12.75,27.594-22.75,44.093-29.734
		c17.077-7.218,35.249-10.89,53.968-10.89c18.718,0,36.889,3.672,53.967,10.89c16.5,6.984,31.344,16.984,44.093,29.734
		c12.734,12.734,22.733,27.562,29.718,44.077c7.219,17.077,10.875,35.233,10.875,53.967c0,18.734-3.656,36.89-10.875,53.968
		C472.785,267.819,462.786,282.655,450.052,295.374z"/>
	<path style="fill:#F6BB42;" d="M351.992,80.012c-64.812,0-117.342,52.53-117.342,117.325c0,64.796,52.53,117.318,117.342,117.318
		c64.811,0,117.34-52.522,117.34-117.318C469.332,132.542,416.803,80.012,351.992,80.012z M419.865,265.226
		c-18.125,18.116-42.233,28.116-67.873,28.116c-25.641,0-49.749-10-67.874-28.116c-18.14-18.14-28.124-42.249-28.124-67.889
		c0-25.64,9.984-49.749,28.124-67.873c18.125-18.14,42.233-28.124,67.874-28.124c25.64,0,49.748,9.984,67.873,28.124
		c18.141,18.125,28.124,42.233,28.124,67.873C447.989,222.977,438.006,247.086,419.865,265.226z"/>
	<path style="fill:#F6BB42;" d="M351.992,122.667c-41.234,0-74.654,33.437-74.654,74.67s33.42,74.662,74.654,74.662
		c41.232,0,74.654-33.429,74.654-74.662S393.224,122.667,351.992,122.667z M351.992,250.664c-29.406,0-53.343-23.921-53.343-53.327
		c0-29.405,23.937-53.326,53.343-53.326c29.405,0,53.342,23.921,53.342,53.326C405.334,226.742,381.397,250.664,351.992,250.664z"/>
	<path style="fill:#F6BB42;" d="M351.992,165.337c-17.672,0-32,14.328-32,31.999c0,17.672,14.328,32,32,32
		c17.671,0,31.998-14.328,31.998-32C383.99,179.665,369.663,165.337,351.992,165.337z M351.992,208.009
		c-5.875,0-10.656-4.781-10.656-10.672c0-5.875,4.781-10.671,10.656-10.671s10.656,4.797,10.656,10.671
		C362.648,203.227,357.867,208.009,351.992,208.009z"/>
</g>
<path style="fill:#ED5564;" d="M0,186.665v42.671c0,97.193,54.187,181.753,133.981,225.096c-3.547,1.719-5.984,5.344-5.984,9.562
	c0,5.906,4.781,10.656,10.656,10.656h234.682c5.875,0,10.655-4.75,10.655-10.656c0-4.219-2.437-7.844-5.983-9.562
	c79.795-43.343,133.981-127.903,133.981-225.096v-42.671H0z"/>
<path style="fill:#DA4453;" d="M0,208.009v21.328h31.999c0,5.891,4.781,10.671,10.656,10.671c5.906,0,10.688-4.781,10.688-10.671
	h21.311c0,5.891,4.781,10.671,10.688,10.671c5.875,0,10.656-4.781,10.656-10.671h21.343c0,5.891,4.766,10.671,10.656,10.671
	s10.656-4.781,10.656-10.671h21.343c0,5.891,4.781,10.671,10.656,10.671c5.906,0,10.688-4.781,10.688-10.671h21.312
	c0,5.891,4.781,10.671,10.688,10.671c5.875,0,10.655-4.781,10.655-10.671h21.344c0,5.891,4.766,10.671,10.656,10.671
	c5.89,0,10.656-4.781,10.656-10.671h21.343c0,5.891,4.781,10.671,10.656,10.671c5.905,0,10.687-4.781,10.687-10.671h21.312
	c0,5.891,4.781,10.671,10.688,10.671c5.875,0,10.656-4.781,10.656-10.671h21.343c0,5.891,4.766,10.671,10.655,10.671
	c5.891,0,10.656-4.781,10.656-10.671h21.344c0,5.891,4.781,10.671,10.656,10.671c5.906,0,10.688-4.781,10.688-10.671h21.312
	c0,5.891,4.781,10.671,10.687,10.671c5.875,0,10.656-4.781,10.656-10.671h32v-21.328H0z"/>
</svg>