<?xml version="1.0" encoding="iso-8859-1"?>
<!-- Uploaded to: SVG Repo, www.svgrepo.com, Generator: SVG Repo Mixer Tools -->
<svg version="1.1" id="Layer_1" xmlns="http://www.w3.org/2000/svg" xmlns:xlink="http://www.w3.org/1999/xlink" 
	 viewBox="0 0 512.001 512.001" xml:space="preserve">
<path id="SVGCleanerId_0" style="fill:#FFEFD9;" d="M381.435,512.001H130.566L92.002,152.074h327.997L381.435,512.001z"/>
<g>
	<path id="SVGCleanerId_0_1_" style="fill:#FFEFD9;" d="M381.435,512.001H130.566L92.002,152.074h327.997L381.435,512.001z"/>
</g>
<polygon style="fill:#FFD6A0;" points="256,152.074 256,512.001 381.435,512.001 419.999,152.074 "/>
<rect x="57.325" y="86.088" transform="matrix(-0.1168 -0.9932 0.9932 -0.1168 75.326 275.1567)" style="fill:#78B9EB;" width="205.372" height="35.994"/>
<path style="fill:#FFC170;" d="M389.148,440.015H122.854l-19.281-179.964h304.858L389.148,440.015z"/>
<path style="fill:#FF9811;" d="M390.322,440.015H256V260.052H408.43L390.322,440.015z"/>
<path style="fill:#C9E3F7;" d="M429.965,224.059H82.036V116.081h347.93V224.059z"/>
<path style="fill:#AED5F3;" d="M429.965,224.059H256V116.081h173.965V224.059z"/>
<path style="fill:#804C09;" d="M256,392.025c-23.154,0-41.992-18.837-41.992-41.991c0-23.154,18.837-41.992,41.992-41.992
	s41.991,18.837,41.991,41.992C297.992,373.188,279.154,392.025,256,392.025z"/>
<path style="fill:#FFFFFF;" d="M256,326.038c13.253,0,23.995,10.743,23.995,23.995S269.253,374.029,256,374.029
	s-23.995-10.743-23.995-23.995S242.749,326.038,256,326.038 M256,290.046c-33.077,0-59.988,26.911-59.988,59.988
	s26.911,59.988,59.988,59.988s59.988-26.911,59.988-59.988S289.079,290.046,256,290.046L256,290.046z"/>
</svg>