<?xml version="1.0" encoding="iso-8859-1"?>
<!-- Uploaded to: SVG Repo, www.svgrepo.com, Generator: SVG Repo Mixer Tools -->
<svg height="800px" width="800px" version="1.1" id="Layer_1" xmlns="http://www.w3.org/2000/svg" xmlns:xlink="http://www.w3.org/1999/xlink" 
	 viewBox="0 0 512 512" xml:space="preserve">
<path style="fill:#663310;" d="M381.217,164.957V512H130.782V164.957l35.529-122.939V5.565c0-3.073,2.492-5.565,5.565-5.565h168.242
	c3.073,0,5.565,2.492,5.565,5.565v36.453L381.217,164.957z"/>
<path style="fill:#874D20;" d="M130.782,164.957l35.529-122.939h179.372l35.533,122.939H130.782z"/>
<path style="fill:#391B10;" d="M255.994,82.601c14.476,0,26.204,9.351,26.204,20.888c0,11.536-11.728,20.888-26.204,20.888
	c-14.471,0-26.199-9.352-26.199-20.888C229.795,91.952,241.523,82.601,255.994,82.601L255.994,82.601z"/>
<path style="fill:#CF8F3D;" d="M381.217,458.893c-2.331,0.47-4.853,0.988-7.584,1.578c-42.574,9.176-31.663,12.585-61.03-19.073
	c-29.363-31.654-26.916-20.66-13.713-61.492c13.206-40.835,4.744-33.25,47.313-42.425c20.779-4.48,28.817-7.581,35.015-5.908v127.32
	H381.217z M130.782,440.606c10.192,0,20.392-8.307,49.662-24.922c58.545-33.231,49.667-18.108,49.667-84.571
	c0-66.461,8.878-51.339-49.667-84.568l-0.668-0.382h-48.994V440.606z"/>
<path style="fill:#FFFFFF;" d="M345.684,244.136c0,19.026-15.635,34.859-35.457,34.859c-19.828,0-35.463-15.833-35.463-34.859
	c0-8.883,29.492-65.427,35.463-79.179C316.192,178.709,345.684,235.253,345.684,244.136L345.684,244.136z"/>
</svg>