<?xml version="1.0" encoding="iso-8859-1"?>
<!-- Uploaded to: SVG Repo, www.svgrepo.com, Generator: SVG Repo Mixer Tools -->
<svg height="800px" width="800px" version="1.1" id="Layer_1" xmlns="http://www.w3.org/2000/svg" xmlns:xlink="http://www.w3.org/1999/xlink" 
	 viewBox="0 0 512.002 512.002" xml:space="preserve">
<g>
	<path style="fill:#FEC24C;" d="M370.945,182.239c48.328-56.789,71.177-112.328,51.634-131.87
		c-19.343-19.335-73.954,2.829-130.143,50.159c-3.697,30.338-13.685,59.991-21.981,81.712H370.945z"/>
	<polygon style="fill:#723C13;" points="4.34,321.087 507.662,321.087 507.662,251.663 4.34,251.663 	"/>
	<polygon style="fill:#9E5A23;" points="4.34,251.663 507.662,251.663 507.662,182.239 4.34,182.239 	"/>
	<path style="fill:#723C13;" d="M45.188,223.088c-3.393,3.393-8.886,3.393-12.271,0c-3.393-3.393-3.393-8.886,0-12.271
		c3.384-3.393,8.878-3.393,12.271,0C48.581,214.201,48.581,219.694,45.188,223.088"/>
	<g>
		<path style="fill:#9E5A23;" d="M45.188,292.511c-3.393,3.393-8.886,3.393-12.271,0c-3.393-3.393-3.393-8.886,0-12.271
			c3.384-3.393,8.878-3.393,12.271,0C48.581,283.625,48.581,289.118,45.188,292.511"/>
		<path style="fill:#9E5A23;" d="M479.086,292.511c-3.393,3.393-8.886,3.393-12.271,0c-3.393-3.393-3.393-8.886,0-12.271
			c3.384-3.393,8.878-3.393,12.271,0C482.479,283.625,482.479,289.118,479.086,292.511"/>
	</g>
	<g>
		<path style="fill:#723C13;" d="M479.086,223.088c-3.393,3.393-8.886,3.393-12.271,0c-3.393-3.393-3.393-8.886,0-12.271
			c3.384-3.393,8.878-3.393,12.271,0C482.479,214.201,482.479,219.694,479.086,223.088"/>
		<polygon style="fill:#723C13;" points="4.34,182.239 73.764,182.239 73.764,130.172 4.34,130.172 		"/>
		<polygon style="fill:#723C13;" points="438.238,182.239 507.662,182.239 507.662,130.172 438.238,130.172 		"/>
	</g>
	<polygon style="fill:#576793;" points="91.12,373.155 420.882,373.155 420.882,321.087 91.12,321.087 	"/>
	<g>
		<polygon style="fill:#434C6D;" points="394.849,512.002 342.781,512.002 256.001,373.155 308.069,373.155 		"/>
		<polygon style="fill:#434C6D;" points="117.154,512.002 169.221,512.002 256.001,373.155 203.933,373.155 		"/>
	</g>
	<g>
		<path style="fill:#BC8D2F;" d="M379.162,105.63c-2.222,0-4.443-0.85-6.135-2.543c-3.393-3.393-3.393-8.878,0-12.271l12.271-12.271
			c3.393-3.393,8.878-3.393,12.271,0c3.393,3.393,3.393,8.878,0,12.271l-12.271,12.271
			C383.605,104.779,381.384,105.63,379.162,105.63"/>
		<path style="fill:#BC8D2F;" d="M354.62,154.722c-2.222,0-4.443-0.85-6.135-2.543c-3.393-3.393-3.393-8.878,0-12.271l12.271-12.271
			c3.393-3.393,8.878-3.393,12.271,0c3.393,3.393,3.393,8.878,0,12.271l-12.271,12.271
			C359.063,153.872,356.842,154.722,354.62,154.722"/>
		<path style="fill:#BC8D2F;" d="M330.073,117.909c-2.222,0-4.443-0.85-6.135-2.543c-3.393-3.384-3.393-8.878-0.009-12.271
			l12.279-12.279c3.384-3.393,8.878-3.393,12.271,0c3.393,3.384,3.393,8.878,0.009,12.271l-12.271,12.279
			C334.516,117.058,332.294,117.909,330.073,117.909"/>
		<path style="fill:#BC8D2F;" d="M313.9,170.892c-2.222,0-4.443-0.85-6.135-2.543c-3.393-3.393-3.393-8.878,0-12.271l10.04-10.032
			c3.384-3.393,8.886-3.393,12.271,0c3.384,3.384,3.384,8.878,0,12.271l-10.04,10.032
			C318.343,170.042,316.121,170.892,313.9,170.892"/>
	</g>
	<path style="fill:#659C35;" d="M270.446,182.239c12.991-33.966,30.208-87.361,20.792-132.356c0,0-13.451,44.752-40.474,70.378
		c-17.477,16.575-34.946,31.718-43.911,61.978H270.446z"/>
	<g>
		<path style="fill:#A4E869;" d="M186.577,69.426c-4.79,0-8.678-3.879-8.678-8.678c0-21.105,20.168-49.794,28.577-58.203
			c3.393-3.393,8.878-3.393,12.271,0c3.393,3.393,3.393,8.878,0,12.271c-8.062,8.071-23.491,32.23-23.491,45.932
			C195.255,65.547,191.368,69.426,186.577,69.426"/>
		<path style="fill:#A4E869;" d="M186.577,69.426c-4.79,0-8.678-3.879-8.678-8.678c0-4.981-7.185-19.664-15.256-29.054
			c-3.124-3.636-2.716-9.112,0.92-12.236c3.636-3.133,9.112-2.708,12.236,0.92c7.845,9.121,19.456,28.264,19.456,40.37
			C195.255,65.547,191.368,69.426,186.577,69.426"/>
	</g>
	<path style="fill:#D7172A;" d="M250.769,120.259c1.692-1.605,3.324-3.28,4.912-5.016c-3.211-34.504-32.898-54.498-69.103-54.498
		c-38.339,0-69.424,22.407-69.424,60.746c0,17.503,6.526,40.682,17.208,60.746h72.487
		C215.814,151.985,233.292,136.834,250.769,120.259"/>
	<g>
		<path style="fill:#994530;" d="M151.865,121.494c-4.79,0-8.678-3.879-8.678-8.678v-8.678c0-4.799,3.888-8.678,8.678-8.678
			s8.678,3.879,8.678,8.678v8.678C160.543,117.615,156.656,121.494,151.865,121.494"/>
		<path style="fill:#994530;" d="M177.899,156.206c-4.79,0-8.678-3.879-8.678-8.678v-8.678c0-4.799,3.888-8.678,8.678-8.678
			s8.678,3.879,8.678,8.678v8.678C186.577,152.327,182.69,156.206,177.899,156.206"/>
		<path style="fill:#994530;" d="M203.933,121.494c-4.79,0-8.678-3.879-8.678-8.678v-8.678c0-4.799,3.888-8.678,8.678-8.678
			s8.678,3.879,8.678,8.678v8.678C212.611,117.615,208.724,121.494,203.933,121.494"/>
	</g>
</g>
</svg>