<?xml version="1.0" encoding="iso-8859-1"?>
<!-- Uploaded to: SVG Repo, www.svgrepo.com, Generator: SVG Repo Mixer Tools -->
<svg version="1.1" id="Layer_1" xmlns="http://www.w3.org/2000/svg" xmlns:xlink="http://www.w3.org/1999/xlink" 
	 viewBox="0 0 512 512" xml:space="preserve">
<path style="fill:#6D0011;" d="M387.421,166.394V0h-63.436v166.394c-28.954,12.34-49.252,41.056-49.252,74.516v241.975
	c0,16.08,13.036,29.115,29.115,29.115h103.709c16.08,0,29.115-13.036,29.115-29.115V240.91
	C436.674,207.449,416.375,178.734,387.421,166.394z"/>
<path style="fill:#A9825A;" d="M387.421,166.394V0h-63.436v166.394c-28.954,12.34-49.252,41.056-49.252,74.516v241.975
	c0,16.08,13.036,29.115,29.115,29.115h103.709c16.08,0,29.115-13.036,29.115-29.115V240.91
	C436.674,207.449,416.375,178.734,387.421,166.394z"/>
<path style="fill:#AEACB3;" d="M155.457,511.646c-9.22,0-16.696-7.475-16.696-16.696V317.984c0-9.22,7.475-16.696,16.696-16.696
	c9.22,0,16.696,7.475,16.696,16.696v176.965C172.152,504.171,164.677,511.646,155.457,511.646z"/>
<path style="fill:#F2F2F3;" d="M235.592,307.186c0,44.258-35.878,80.135-80.135,80.135s-80.135-35.878-80.135-80.135v-95.504
	c0-4.601,3.73-8.332,8.332-8.332h143.607c4.601,0,8.332,3.73,8.332,8.332v95.504H235.592z"/>
<path style="fill:#DFDEE1;" d="M155.458,367.285c-44.258,0-80.136-35.878-80.136-80.135v20.035
	c0,44.258,35.878,80.135,80.136,80.135c44.257,0,80.135-35.878,80.135-80.135v-20.035
	C235.592,331.408,199.714,367.285,155.458,367.285z"/>
<path style="fill:#F2F2F3;" d="M196.637,511.646h-82.36c-9.22,0-16.696-7.475-16.696-16.696c0-9.22,7.475-16.696,16.696-16.696
	h82.36c9.22,0,16.696,7.475,16.696,16.696C213.333,504.171,205.857,511.646,196.637,511.646z"/>
<path style="fill:#533F29;" d="M387.421,166.394V0h-31.717v512h51.854c16.08,0,29.115-13.036,29.115-29.115V240.91
	C436.674,207.449,416.375,178.734,387.421,166.394z"/>
<rect x="274.73" y="290.504" style="fill:#FFDC3B;" width="161.937" height="138.017"/>
<rect x="354.625" y="290.504" style="fill:#FF9900;" width="82.054" height="138.017"/>
<circle style="fill:#E39F39;" cx="355.704" cy="368.417" r="39.513"/>
<circle style="fill:#FBDB4A;" cx="355.704" cy="359.513" r="39.513"/>
<rect x="274.73" y="428.522" style="fill:#533F29;" width="161.937" height="20.035"/>
<path style="fill:#FFDC3B;" d="M401.615,46.431c0,4.601-3.73,8.332-8.332,8.332h-75.158c-4.601,0-8.332-3.73-8.332-8.332V8.332
	c0-4.601,3.73-8.332,8.332-8.332h75.158c4.601,0,8.332,3.73,8.332,8.332V46.431z"/>
<rect x="324.06" y="54.762" style="fill:#C27526;" width="63.362" height="67.239"/>
<rect x="355.259" y="54.762" style="fill:#A16125;" width="32.167" height="67.239"/>
<path style="fill:#FF9900;" d="M393.283,0h-37.579v54.763h37.579c4.601,0,8.332-3.73,8.332-8.332V8.332
	C401.615,3.73,397.884,0,393.283,0z"/>
<rect x="324.06" y="54.762" style="fill:#A16125;" width="63.362" height="21.293"/>
<path style="fill:#F2BA2C;" d="M356.046,320.009v79.008c21.664-0.185,39.171-17.796,39.171-39.504S377.71,320.194,356.046,320.009z"
	/>
<path style="fill:#DFDEE1;" d="M235.592,211.681c0-4.601-3.73-8.332-8.332-8.332h-71.804v183.97l0,0
	c44.257,0,80.135-35.878,80.135-80.135v-95.504H235.592z"/>
<path style="fill:#FF4B00;" d="M90.362,273.066v28.347c0,35.95,29.144,65.094,65.094,65.094s65.094-29.144,65.094-65.094v-28.347
	H90.362z"/>
<g>
	<path style="fill:#F20013;" d="M155.457,273.066v93.441l0,0c35.95,0,65.094-29.144,65.094-65.094v-28.347H155.457z"/>
	<path style="fill:#F20013;" d="M205.876,249.692c0,6.967-5.648,12.614-12.614,12.614c-6.967,0-12.614-5.648-12.614-12.614v-46.748
		h25.229v46.748H205.876z"/>
</g>
</svg>