<svg enable-background="new 0 0 1286.727 1532.883" height="1533" viewBox="0 0 1286.727 1532.883" width="1287" xmlns="http://www.w3.org/2000/svg" xmlns:xlink="http://www.w3.org/1999/xlink"><linearGradient id="a" gradientTransform="matrix(-.9998 -.0177 -.0177 .9998 -4623.002 -515.4069)" gradientUnits="userSpaceOnUse" x1="-5220.0122" x2="-5190.0366" y1="564.015" y2="564.015"><stop offset=".0765" stop-color="#fdb899"/><stop offset=".5771" stop-color="#ff7b68"/></linearGradient><linearGradient id="b" gradientTransform="matrix(.7777 .6287 .6287 -.7777 197.4943 2467.7617)" gradientUnits="userSpaceOnUse" x1="-1149.3453" x2="-1119.37" y1="2101.9988" y2="2101.9988"><stop offset=".0765" stop-color="#fdb899"/><stop offset=".7274" stop-color="#ff7b60"/></linearGradient><linearGradient id="c" gradientUnits="userSpaceOnUse" x1="1024.5989" x2="1022.7142" y1="854.8532" y2="793.1057"><stop offset="0" stop-color="#fff3eb"/><stop offset=".3971" stop-color="#f5e1d4"/><stop offset="1" stop-color="#e4c0aa"/></linearGradient><linearGradient id="d" gradientUnits="userSpaceOnUse" x1="1063.1216" x2="1253.6061" y1="950.2576" y2="950.2576"><stop offset="0" stop-color="#fff"/><stop offset="1" stop-color="#e4c0aa"/></linearGradient><path d="m429.778 1310.614s-47.433 55.212-64.378 124.175c-4.037 22.689-1.538 36.582-13.486 48.347-5.991 5.899-72.924 7.514-74.6-3.267s.202-12.611-1.912-17.395-44.609-19.797-44.609-19.797-5.089 4.58-11.705 11.705c-7.982 8.596-104.482-67.198-88.806-84.734 15.013-16.794 25.734-29.063 39.186-37.66 45.548-29.263 84.734 33.843 98.475 45.039 8.529 1.08 15.51.137 21.104-1.538 31.497-9.433 54.505-106.257 54.505-106.257z" fill="#020201"/><path d="m301.918 1404.672c5.169 3.027 13.064 4.952 16.156 1.603 1.321-1.431 1.403-3.384 1.37-3.996-.106-1.925-21.896-15.015-21.007-19.06 0 0 18.561 10.431 23.867 11.432 1.596.301 10.272-2.047 9.148-4.687-.785-1.843-26.239-21.283-23.529-25.496 0 0 17.935 19.224 30.622 14.608 2.193-.798 5.518-3.158 6.489-5.277.172-.375-30.399-16.323-27.845-22.438 0 0 18.093 12.047 29.776 8.241 3.348-1.09 9.087-5.396 8.437-6.196-3.519-4.327-17.039-8.187-16.253-10.043 0 0 10.267 2.123 19.7-3.394 1.84-1.076 2.734-2.955 1.884-2.972-12.776-.244-26.678-5.709-33.25-18.879-1.871.769-1.939 3.5-2.083 4.999 7.104 9.693 14.81 12.607 28.358 15.011-5.506 4.281-24.915-2.729-30.643-9.773-.651-.8-2.927 4.572-2.973 5.103-.427 4.999 29.13 23.204 29.848 21.026-7.345 4.619-29.95-4.527-34.196-9.747-.325-.4-3.707 6.051-4.042 6.888-3.186 7.971 26.701 25.209 28.411 22.813-8.649 6.124-20.485-7.293-31.809-16.436-1.225-.989-7.111 7.376-7.125 9.467-.025 3.692 25.142 23.987 26.341 23.099-5.978 4.689-31.019-12.611-32.774-17.317-.088-.236-7.068.013-6.182 2.376 6.906 18.42 26.474 27.218 26.474 27.218-4.387.01-8.296-.763-11.848-2.349-13.574-6.061-18.698-23.583-19.936-23.107-1.746.671 9.603 31.3 9.603 31.3s-14.019-1.921-15.353-32c0 0-1.095-.518-1.09.404.076 13.919 4.791 30.274 12.121 34.987 1.042.67 2.815 1.375 4.153 1.45 1.739.097 2.418-1.495 2.527-1.761.807-7.984-5.575-19.391-5.053-19.699.391-.232 3.865 8.011 11.706 12.602z" fill="#fff"/><path d="m954.435 1309.077s-1.177 52.323 56.98 131.743c.653.892-4.569 11.567-10.378 18.161-8.236 9.349-32.097 21.716-33.78 20.582-4.637-3.123-10.417-16.828-12.221-16.628-5.199.578-17.029 28.047-17.029 28.047s1.852 22.319-1.742 30.707c-6.071 14.168-135.038 17.601-136.272-5.888-1.22-23.216-1.115-35.588 3.589-51.263 7.517-29.4 67.123-20.036 84.342-24.241 6.007-6.151 7.37-21.607 7.412-27.446.401-55.493-29.449-78.041-29.449-78.041z" fill="#020201"/><path d="m924.814 1437.026c5.825-1.721 14.805-5.108 14.692-10.151-.048-2.155-1.351-3.739-1.802-4.189-1.418-1.414-21.216 9.617-35.261 3.855 0 0 27.324-5.914 31.997-9.095 4.103-2.792 5.954-9.693 3.306-10.86-1.849-.815-37.498 4.236-38.488-1.179 0 0 30.094.71 35.994-12.885 1.02-2.35 2.756-8.532.219-8.453-4.274.134-35.585 8.622-38.014 1.851 0 0 24.525-3.016 30.267-15.189 1.646-3.488 4.408-11.237 1.743-11.474-5.555-.494-17.953 7.066-18.683 5.003 0 0 8.859-6.445 11.791-18.175.572-2.287-.096-4.455-.718-3.797-9.351 9.885-26.423 15.605-40.329 10.54-.808 2.073 1.047 4.252 1.988 5.531 11.863 1.939 22.703-.88 34.116-9.692-.972 7.672-20.701 19.567-29.728 18.604-1.025-.109 1.084 5.865 1.422 6.314 3.179 4.226 38.005-6.961 37.003-9.221-2.058 9.386-27.803 18.217-34.494 17.503-.513-.055 1.555 7.631 1.898 8.547 3.268 8.714 39.888.436 39.446-2.776-1.946 11.585-23.609 10.583-38.122 12.399-1.57.197-1.169 11.177.278 12.815 2.556 2.892 39.797-1.098 40.039-2.735-1.027 8.362-36.657 11.656-40.864 12.657-.228-.114-2.843 5.678-.559 6.818 17.806 8.885 40.486-2.489 40.486-2.489-3.146 3.467-5.861 5.35-9.52 6.918-13.981 5.988-32.633-1.437-33.192-.089-.787 1.899 32.809 10.281 32.809 10.281s-14.119 6.895-35.811-5.088c0 0-1.148.46-.502 1.173 9.759 10.769 27.017 12.073 35.571 9.96 1.216-.301 2.981-1.15 3.995-2.147 1.318-1.296.608-4.215.501-4.508-6.398-3.448-11.995-3.742-17.873-5.609 1.807.573 5.563 1.643 14.399-.968z" fill="#fff"/><path d="m546.881 696.949c-127.376 262.541-262.002 583.881-262.002 598.305s155.461 100.168 161.872 88.949 5.174-103.57 103.739-319.934c30.208-66.31 135.863-204.948 135.863-204.948s90.183 166.409 126.613 350.99c18.418 93.317-1.139 127.399-1.397 136.171-.806 27.398 172.083-3.949 182.501-28.791 10.417-24.842-153.057-613.831-174.693-641.878-16.766-18.345-257.508-9.759-272.496 21.136z"/><path d="m300.275 608.549s-21.651 18.915-28.261 34.66c-3.192 7.604-8.56 32.276-6.459 41.293 3.282 14.082 16.671 11.502 16.624 9.609 3.07 6.591 11.116 9.661 18.846 6.485 2.435 5.823 13.764 8.365 18.423 5.823 3.282 6.565 12.15 5.146 17.671.642 12.271-10.012 13.344-70.173 13.344-70.173.073-8.509-42.187-30.484-50.188-28.339z" fill="#f9a081"/><path d="m112.336 820.469s160.002-172.59 169.474-165.167c21.451 16.809-92.088 182.054-92.088 182.054l-31.938-.457 109.897-156.477-138.176 149.483z" fill="#ffc7c3"/><path d="m340.571 649.473 26.431 206.986-28.99 5.672-15.921-202.992z" fill="#de9c97"/><path d="m176.674 639.477h-1.302c-5.646 0-10.223-4.577-10.223-10.223v-7.658c0-5.646 4.577-10.223 10.223-10.223h1.302c5.646 0 10.223 4.577 10.223 10.223v7.658c-0 5.646-4.577 10.223-10.223 10.223z" fill="#854335"/><path d="m224.478 809.077-1.892-22.78c-2.099-25.263-11.162-40.551-27.1-50.482l-5.716-102.702c-.144-2.593-1.856-4.569-3.866-4.463l-19.56 1.034c-1.968.104-3.532 2.17-3.571 4.714l-1.524 101.028c-14.009 9.115-25.289 28.386-26.804 47.943l-1.173 22.059c-1.76 33.11 13.959 62.833 34.107 64.491l22.569 1.857c21.084 1.734 37.419-27.924 34.53-62.699z" fill="#1e0808"/><path d="m208.316 841.425h-61.094v-54.492c15.337 2.508 42.708 3.746 61.094 0z" fill="#fff"/><path d="m208.106 832.245c-4.607-22.319 43.493-57.502 61.98-65.079 18.361-7.525 42.482-5.198 49.683 2.938 2.322 2.624 2.511 5.524 1.065 8.038-1.537 2.673-6.141 2.112-6.141 2.112s12.818.818 22.438 7.479c10.577 7.324 15.287 23.698 11.908 31.331-3.4 7.681-10.325 6.296-10.325 6.296s6.126 5.145 7.766 12.056c.239 1.006 1.627 6.858-1.336 10.952-2.788 3.851-10.15 4.541-10.15 4.541s-119.16 16.776-126.888-20.664z" fill="#ffb060"/><path d="m220.58 834.68c29.429-40.041 80.486-54.467 94.797-54.425-46.546 4.939-87.208 49.65-86.632 50.722.014.027.047.044.099.051 0 0 17.953-23.043 77.187-22.791 15.301.818 29.716 5.666 29.716 5.666-10.508-1.733-20.245-2.966-26.999-2.266 9.657 1.535 16.55 4.875 22.718 8.688-66.159-18.006-98.642 16.158-98.642 16.158s-7.459-1.21-12.244-1.803z" fill="#ce985d"/><path d="m320.484 771.02c-1.261-.129-2.453 2.006-3.552 3.975-1.09 1.953-2.364 4.234-1.554 5.26 1.037 1.313 5.658.784 7.22-2.112 1.539-2.853-.457-6.954-2.114-7.123z" fill="#6a4031"/><path d="m347.215 815.899c-3.307-.184-5.108 4.454-5.259 4.858-.274.735-1.073 2.875-.15 3.756 1.145 1.094 4.104-.55 4.558-.801 1.537-.854 4.847-3.256 4.157-5.559-.394-1.315-1.967-2.18-3.306-2.254z" fill="#6a4031"/><path d="m345.112 840.54c-2.849-.645-5.418 3.99-6.01 5.059-.257.464-2.397 4.324-1.202 5.459 1.237 1.175 5.201-1.379 5.86-1.803 2.067-1.332 4.162-2.682 4.157-4.858-.004-1.678-1.256-3.506-2.805-3.857z" fill="#6a4031"/><path d="m112.336 820.469-111.989 289.522c-.732 1.912-.283 4.075 1.149 5.538l41.008 41.894 116.195-330.155z" fill="#de9c97"/><path d="m226.528 1190.547-184.025-33.124 116.195-330.155 196.32 19.779c9.304.937 15.186 10.445 11.871 19.189l-118.175 311.75c-3.405 8.983-12.73 14.263-22.186 12.561z" fill="#ffc7c3"/><path d="m192.587 1103.941c-10.086 0-19.837-2.231-28.825-6.706-19.099-9.507-32.198-27.877-36.885-51.725-4.526-23.03-.619-48.57 11.003-71.916s29.645-41.859 50.749-52.13c21.853-10.635 44.405-11.257 63.505-1.749 19.099 9.507 32.198 27.877 36.885 51.725 4.526 23.03.619 48.57-11.003 71.916-11.622 23.346-29.646 41.859-50.749 52.13-11.568 5.63-23.335 8.455-34.68 8.455zm30.715-173.902c-8.81 0-18.053 2.243-27.233 6.711-17.75 8.638-33.011 24.414-42.97 44.42-9.96 20.006-13.349 41.691-9.541 61.062 3.646 18.553 13.512 32.682 27.78 39.784 6.689 3.331 13.91 4.909 21.312 4.91 26.064.001 54.425-19.564 70.146-51.146 9.96-20.006 13.349-41.691 9.541-61.062-3.646-18.553-13.512-32.682-27.78-39.784-6.562-3.267-13.751-4.895-21.255-4.895z" fill="#ffb162"/><path d="m231.683 994.9c-.851-.952 12.095-19.325 18.764-15.921 4.152 2.119 4.804 25.192-.801 28.972-2.475 1.669-4.746.397-5.866-4.302-1.405-5.895 1.456-14.378.087-15.708-1.928-1.873-11.476 7.75-12.184 6.959z" fill="#ffb162"/><path d="m180.689 993.605c-1.124-.955 12.991-24.852 20.812-22.11 6.941 2.434 9.638 26.087 4.607 31.763-2.222 2.507-5.235 2.042-7.527-3.32-2.876-6.728-.228-16.108-1.989-17.406-2.479-1.827-14.968 11.867-15.903 11.073z" fill="#ffb162"/><path d="m195.55 1014.599c-1.865.611 0 14.209 5.475 19.814 5.196 5.32 11.993 1.173 16.685-5.084.989-1.318 3.52-5.866 2.086-6.127-2.764-.503-9.907 3.65-13.296 2.868-2.814-.649-9.28-12.018-10.95-11.471z" fill="#ffb162"/><path d="m281.038 656.252c5.312-6.58 8.912-10.392 11.823-9.463 1.432.457 2.261 1.641 2.455 2.243 3.317 10.294-10.173 40.87-10.173 40.87s9.638-19.171 17.751-34.044c2.658-4.873 8.088-5.034 9.672-2.273 3.224 5.62-4.258 39.535-4.258 39.535s5.781-19.23 10.586-31.825c2.901-7.603 10.137-7.554 10.538-2.227.715 9.506-2.714 35.971-2.714 35.971s6.202-26.433 8.159-31.209c3.23-7.88 9.217-6.201 9.758-1.82 1.073 8.679-.725 31.598-.725 31.598-.957 14.716-18.597 23.261-24.462 12.81-6.67 2.965-15.936-.542-18.423-5.823-8.259 3.494-16.95-.24-18.855-6.196-2.15 2.353-9.819 2.457-13.987-2.467-2.299-2.715-2.646-5.947-2.742-7.977-.107-2.281-.007-8.372 15.597-27.703z" fill="#ffb493"/><path d="m483.622 264.732c-19.903-6.892-94.214 111.931-182.727 292.346-4.761 9.704-17.187 38.288-9.741 56.497 8.163 19.961 43.662 31.32 63.526 29.052 32.342-3.693 131.704-134.831 144.514-248.525 2.424-21.511 13.445-119.323-15.572-129.37z" fill="#65c4d0"/><path d="m412.857 380.598c-.396-4.006-.808-9.732.648-12.957h-35.688c1.247 4.288 1.343 8.263 1.179 11.801-.058 1.242-.649 2.397-1.63 3.16-11.598 9.02-19.389 25.723-19.389 44.845 0 28.696 17.537 51.958 39.171 51.958 21.633 0 39.171-23.262 39.171-51.958 0-21.109-8.052-36.022-21.568-43.898-1.07-.623-1.772-1.72-1.894-2.951z" fill="#f5bc54"/><path d="m413.15 371.862h-34.219c-4.547 0-8.267-3.72-8.267-8.267v-3.979c0-4.547 3.72-8.267 8.267-8.267h34.219c4.547 0 8.267 3.72 8.267 8.267v3.979c0 4.547-3.72 8.267-8.267 8.267z" fill="#854335"/><path d="m420.729 444.8h-49.38v-26.871c16.882 2.532 24.03-25.042 24.03-25.042s4.951 26.589 25.35 25.042z" fill="#854335"/><path d="m422.73 446.8h-53.381v-31.193l2.297.344c14.905 2.239 21.729-23.309 21.798-23.567l2.25-8.644 1.651 8.779c.012.064 1.244 6.464 4.835 12.542 4.603 7.791 10.795 11.449 18.398 10.873l2.151-.163v31.029zm-49.381-4h45.381v-22.807c-13.862-.172-20.607-12.636-23.486-20.484-.937 2.35-2.203 5.127-3.828 7.869-4.956 8.365-11.106 12.715-17.905 12.716-.054 0-.107 0-.161-.001v22.707z" fill="#fff"/><path d="m382.604 381.117h25.745v3h-25.745z" fill="#fff"/><path d="m408.986 456.645 13.756 3.206 33.79-78.265-27.78 1.188z" fill="#be8d8d"/><path d="m421.417 459.851 25.633 5.743 33.923-63.04-24.441-20.968z" fill="#f3d2d2"/><path d="m433.889 448.642 17.295 6.134 19.651-37.394-13.041-21.582z" fill="#fff"/><path d="m386.392 448.615s-18.276.395-26.005 1.722c-15.205 2.611-75.066 227.419-54.6 259.575 11.89 18.681 35.56 18.912 74.125 28.047 45.285 10.727 110.986 8.013 149.451-1.202 76.539-18.337 20.282-211.509 7.947-250.909-1.353-4.322-4.906-7.591-9.325-8.583l-115.316-23.909c15.894-68.733 39.824-150.943 69.838-196.766-2.89-3.143-12.652 4.923-20.458 16.588-38.602 57.907-56.356 110.544-75.657 175.437z"/><path d="m412.074 460.752c-28.341 162.136-27.843 274.384-44.718 274.402l17.427 3.922c14.849-86.131 5.488-122.377 27.291-278.324z" fill="#b9d5dc"/><path d="m564.427 184.546c-10.257 11.492-7.648 27.324-7.648 27.324-21.553-5.033-61.419 12.463-92.47 75.5-18.772 38.109-12.035 116.691 3.476 130.147-46.583 69.748-51.253 155.01-33.373 175.447-87.603 186.952 563.162 197.738 412.29-61.119 26.541-59.841 20.716-100.822-12.515-125.833 0 0 12.515-79.095-12.515-125.833-35.047-65.445-93.86-71.186-93.86-71.186s1.431-20.247-11.819-25.167c-27.114-10.066-143.223-8.628-151.566.72z" fill="#e6524d"/><g fill="#f1948f"><path d="m484.108 280.32 13.854 9.066-5.291 17.803 14.232-11.921 14.011 8.412-5.381-16.5 13.747-12.68-16.529 2.038-6.023-16.607-5.691 18.077z"/><path d="m671.521 421.638 16.256 2.197 2.442 18.454 8.062-17.007 16.133 1.536-11.593-12.629 7.313-17.484-14.166 9.04-12.219-12.445 2.19 18.876z"/><path d="m472.5 481.535 14.417 8.073-4.112 18.134 13.418-12.892 14.53 7.41-6.45-16.086 12.883-13.615-16.357 3.193-7.098-16.146-4.493 18.435z"/><path d="m694.123 285.12 14.569 7.774-3.761 18.215 13.166-13.166 14.671 7.109-6.759-15.949 12.619-13.878-16.293 3.529-7.408-15.996-4.136 18.523z"/><path d="m744.056 438.05 17.312 11.643-7.3 22.393 18.472-14.84 17.533 10.82-6.304-20.904 17.88-15.805-21.071 2.333-7.117-21.046-7.817 22.733z"/><path d="m482.507 383.733 9.74 7.801-3.638 12.75 9.924-7.691 9.847 7.331-3.833-12.631 9.58-8.29-11.57.199-4.284-12.759-3.917 12.92z"/><path d="m646.316 578.45 17.7 8.283-2.37 21.447 13.8-16.065 17.745 7.503-9.553-18.239 13.088-16.865-18.464 4.993-10.309-18.259-2.772 21.828z"/><path d="m520.431 588.257 16.255 2.197 2.442 18.454 8.062-17.007 16.133 1.536-11.593-12.629 7.313-17.484-14.166 9.04-12.219-12.445 2.19 18.876z"/><path d="m779.943 577.314 15.971 10.557-2.57 19.683 12.882-12.835 16.027 9.833-8.358-18.575 12.249-13.698-16.921 1.74-9.046-18.714-2.941 19.977z"/><path d="m695.735 661.312 16.256 2.197 2.441 18.454 8.063-17.007 16.133 1.536-11.593-12.629 7.313-17.484-14.166 9.04-12.219-12.445 2.19 18.876z"/><path d="m471.657 631.448 14.831 17.319-6.052 21.274 15.623-10.056 15.013 16.524-5.523-23.749 15.111-11.241-17.929-3.806-6.217-24.139-6.49 21.477z"/><path d="m638.561 482.878 4.411 11.675-9.623 9.12 12.457-1.566 4.742 11.324 3.133-12.822 12.466-2.257-10.059-5.721 2.81-13.162-9.95 9.125z"/></g><path d="m483.865 344.894c-2.203 1.036-4.005 3.865-3.476 5.752 2.862 10.218 90.681-4.066 83.431-7.19-8.343-3.596-72.307-2.158-79.955 1.438z" fill="#6c4749"/><path d="m657.539 337.939c.96 7.494 61.878 5.752 70.221-3.595 2.059-2.306-1.421-7.408-2.781-7.19-58.402 9.347-67.44 10.785-67.44 10.785z" fill="#6c4749"/><path d="m608.03 177.426c-5.424 11.234-7.862 23.187-8.045 35.619-.068 4.601.112 9.495 2.062 13.747.927 2.021 2.238 3.569 3.891 5.033 2.37 2.099 4.543 4.307 6.983 6.331 9.997 8.293 6.651 21.289 2.262 31.579-2.528 5.925-5.518 11.642-8.732 17.221-3.009 5.224-6.242 10.25-8.4 15.91-2.086 5.471-3.255 11.436-2.537 17.291.649 5.289 3.002 9.848 5.935 14.218 3.278 4.885 7.026 9.637 8.096 15.578 1.155 6.414-.781 13.065-3.617 18.784-5.396 10.883-14.689 19.28-19.864 30.295-2.35 5.003-4.201 10.92-2.418 16.4 1.354 4.162 4.536 7.08 7.924 9.656 4.082 3.103 8.801 5.982 10.638 11.05 1.961 5.411.247 11.377-2.227 16.317-5.234 10.452-14.999 17.88-19.279 28.907-3.604 9.283-.774 17.904 5.982 24.75 5.567 5.641 13.478 10.027 17.097 17.323 5.218 10.522-5.216 18.781-10.98 26.232-6.756 8.733-11.596 20.946-10.563 32.15.938 10.176 9.32 13.771 16.754 18.929 4.087 2.836 7.452 6.673 7.03 11.995-.511 6.451-5.683 11.89-10.278 15.95-7.071 6.247-16.282 13.751-14.621 24.37 1.465 9.364 10.732 14.419 17.744 19.419 2.315 1.651 5.513 3.592 5.714 6.752.19 2.979-2.26 5.557-4.397 7.299-3.973 3.241-9.051 4.77-12.397 8.842-6.276 7.636 1.471 15.51 6.091 21.603 2.236 2.949 5.403 6.615 5.421 10.524.009 1.93 3.009 1.934 3 0-.017-3.863-2.369-7.311-4.552-10.322-2.587-3.569-5.583-6.892-7.803-10.715-1.106-1.905-2.036-3.979-1.466-6.226.696-2.745 3.214-4.768 5.451-6.279 4.025-2.719 8.482-4.475 11.465-8.518 2.839-3.847 2.894-8.535-.553-12.026-3.232-3.273-7.539-5.549-11.222-8.267-3.955-2.918-8.124-6.505-9.33-11.491-1.359-5.619 1.437-10.789 5.072-14.887 7.007-7.899 18.499-13.966 19.617-25.612.936-9.751-7.618-14.396-14.634-18.908-4.174-2.684-7.903-5.832-8.893-10.95-1.178-6.091.475-12.991 2.537-18.725 2.084-5.795 5.294-11.024 9.312-15.673 3.365-3.893 7.148-7.67 9.285-12.428 8.198-18.253-15.729-25.822-22.624-38.797-6.044-11.374 3.21-23.067 10.204-31.478 6.364-7.652 13.4-17.627 11.617-28.174-.798-4.722-3.626-8.45-7.26-11.42-3.558-2.908-7.927-5.24-10.559-9.115-3.899-5.742-1.39-12.98 1.5-18.579 2.802-5.429 6.572-10.275 10.227-15.143 6.814-9.075 13.891-19.618 13.127-31.526-.342-5.334-2.509-10.01-5.4-14.422-3.225-4.923-7.068-9.579-8.473-15.424-3.12-12.984 4.772-24.529 10.84-35.223 3.098-5.459 5.944-11.057 8.378-16.844 2.176-5.172 4.176-10.446 4.42-16.112.197-4.568-.771-9.255-3.196-13.169-1.244-2.007-2.836-3.786-4.667-5.272-2.474-2.008-4.662-4.224-7.009-6.371-3.873-3.544-4.603-8.615-4.722-13.643-.145-6.126.267-12.339 1.449-18.353 1.259-6.403 3.345-12.594 6.181-18.469.838-1.73-1.748-3.253-2.588-1.513z" fill="#6c4749"/><path d="m727.466 209.353-25.029 12.943s3.23-.459 4.172-.719c12.31-4.051 20.133-11.288 20.857-12.224z" fill="#6c4749"/><path d="m557.239 212.414 26.408 9.575s-5.417-.476-6.383-.61c-15.787-2.998-20.025-8.965-20.025-8.965z" fill="#6c4749"/><path d="m431.444 651.295c-4.001-35.971 4.378-68.113 26.26-96.08 0 0-13.905 10.067-26.42 40.267-11.819 32.356.16 55.813.16 55.813z" fill="#6c4749"/><path d="m852.266 656.96c15.296-39.548 16.996-83.084-5.704-125.064 0 0 16.829 14.331 21.695 56.754 6.952 43.862-15.991 68.31-15.991 68.31z" fill="#6c4749"/><path d="m927.808 386.839c-36.842-57.583-71.254-128.001-106.596-145.556-4.428-2.199-16.71-8.96-29.924-4.018-37.929 14.186-47.328 84.092-52.659 110.558-39.371 195.44-109.002 361.034-84.511 394.788 24.327 33.528 51.953 41.614 75.015 47.479 64.375 16.372 259.681-30.314 308.352-110.322 40.417-66.443-25.878-161.954-109.677-292.929zm-130.788 123.649c-14.613-7.17-24.13-16.892-30.152-28.735-17.204-33.835-6.845-194.189 19.979-227.024 13.93-17.052 29.7-3.702 37.207 1.463 18.768 12.914 86.524 124.669 115.407 200.707 11.1 29.22-97.669 75.555-142.441 53.589z" fill="#ebfbff"/><path d="m927.808 386.839c-31.396-49.071-59.721-109.397-93.174-136.512-2.466 1.952-6.223 4.703-9.238 6.888 22.19 22.806 86.796 127.896 114.066 199.684 11.099 29.219-97.669 75.555-142.441 53.588-14.613-7.17-24.13-16.892-30.152-28.735-11.207-22.041-10.132-97.313-.987-156.486-23.847 67.086-8.022 187.807-11.685 239.085-8.292 116.104-12.037 201.863-26.104 225.473.346.089.694.178 1.038.266 64.375 16.372 259.681-30.314 308.352-110.322 40.419-66.443-25.876-161.954-109.675-292.929z" fill="#cdeef6"/><path d="m732.01 780.932s13.702 4.666 23.958 4.666c10.257 0 164.717-39.219 164.717-39.219l-2.775-5.55s-146.682 39.816-162.109 39.86-22.282-4.648-22.282-4.648z" fill="#fff"/><path d="m827.639 245.053c-5.218-.395-11.279 1.51-15.716 3.494 2.612 1.182 9.475 5.762 11.102 6.882 18.768 12.914 87.553 125.433 116.436 201.471 8.65 22.773-55.509 55.941-105.436 59.069 39.205 158.483 74.083 197.514 69.979 232.005-1.458 12.248-6.946 16.448-15.129 23.197 67.819-17.868 125.349-53.332 150.491-94.662 40.419-66.443-27.759-158.694-111.559-289.67-32.553-50.88-63.022-116.596-100.168-141.786z" fill="#bddae1"/><path d="m777.779 496.937-2.63-2.84s-2.776 57.657-5.159 84.688c-.136 1.538.994 2.894 2.531 3.045 8.677.853 17.353 1.707 26.03 2.56 2.742.27 5.151-1.809 5.286-4.561l3.226-65.757-5.379-1.619-5.133 60.371c-.097 1.139-1.109 1.977-2.246 1.861l-16.648-1.707c-1.645-.169-2.874-1.587-2.808-3.239z" fill="#fff"/><path d="m774.303 540.978 23.87 37.672" fill="#fff"/><path d="m782.238 537.515h8v44.598h-8z" fill="#fff" transform="matrix(.8447 -.5352 .5352 .8447 -177.5313 507.7507)"/><path d="m772.971 575.984 28.047-29.95" fill="#fff"/><path d="m766.478 558.009h41.033v6h-41.033z" fill="#fff" transform="matrix(.6836 -.7298 .7298 .6836 -160.4553 751.8759)"/><path d="m797.246 246.39c-27.282 10.914-31.267 72.939-30.518 88.491 4.144 86.009 76.461 159.43 117.022 214.808 19.227 26.25 43.101 68.591 73.089 101.606 28.284 31.139 39.965 28.261 46.482 27.698 28.734-2.484 56.541-28.734 62.501-39.239 22.01-38.799-219.261-413.092-268.576-393.364z" fill="#65c4d0"/><path d="m834.025 515.969-71.312-31.276-12.431-146.26c-1.525-18.035 7.368-32.312 24.076-34.964 17.238-1.716 29.674 16.197 34.413 39.147z" fill="#da8c5e"/><path d="m793.434 321.361c-1.321-1.095-8.306-.754-16.947 2.461s-13.777 8.271-13.773 10.542c.006 3.145 7.504-1.086 16.145-4.301s17.096-6.613 14.575-8.702z" fill="#b6754e"/><path d="m797.701 346.569c-1.17-1.254-8.141-1.808-17.123.277s-14.721 6.444-15.007 8.697c-.396 3.12 7.681 2.016 16.662-.07 8.982-2.085 17.701-6.51 15.468-8.904z" fill="#b6754e"/><path d="m802.185 370.77c-1.28-1.143-8.272-1.06-17.026 1.835-8.754 2.894-14.073 7.757-14.153 10.027-.11 3.143 7.832 1.308 16.587-1.586 8.754-2.896 17.035-8.096 14.592-10.276z" fill="#b6754e"/><path d="m802.185 393.984c-1.28-1.143-8.272-1.06-17.026 1.835-8.754 2.894-14.073 7.757-14.153 10.027-.11 3.143 7.832 1.308 16.587-1.586s17.035-8.095 14.592-10.276z" fill="#b6754e"/><path d="m804.032 418.969c-1.28-1.143-8.272-1.06-17.026 1.835-8.754 2.894-14.073 7.757-14.153 10.027-.11 3.143 7.832 1.308 16.587-1.586 8.754-2.895 17.035-8.095 14.592-10.276z" fill="#b6754e"/><path d="m803.047 439.364c-1.28-1.143-8.272-1.06-17.026 1.835-8.754 2.894-14.073 7.757-14.153 10.027-.11 3.143 7.832 1.308 16.586-1.586s17.035-8.095 14.593-10.276z" fill="#b6754e"/><path d="m856.176 512.875c-39.102 8.828-70.816.717-93.462-28.183l93.841-225.854c8.331-21.762 25.36-33.782 44.074-28.252 18.749 6.891 21.754 34.137 14.041 63.272z" fill="#ffc89a"/><path d="m902.852 277.54c0-1.716-4.718-6.877-12.707-11.481-7.989-4.603-15.158-5.333-16.905-3.882-2.418 2.01 4.24 6.714 12.228 11.318s17.384 7.319 17.384 4.045z" fill="#cb9467"/><path d="m898.124 306.727c1.419-3.373-8.263-9.22-18.948-14.357-10.115-4.864-19.5-6.812-20.635-4.407-1.669 3.539 6.295 9.589 16.319 14.637 9.391 4.728 21.765 7.687 23.264 4.127z" fill="#cb9467"/><path d="m891.187 336.182c1.377-3.398-9.377-9.861-21.18-15.644-11.174-5.474-21.421-7.919-22.535-5.502-1.639 3.557 7.264 10.147 18.349 15.806 10.385 5.302 23.913 8.926 25.366 5.34z" fill="#cb9467"/><path d="m884.876 367.05c1.113-3.493-10.103-9.116-22.313-13.979-11.56-4.604-21.964-6.259-22.889-3.764-1.363 3.672 8.018 9.563 19.503 14.358 10.758 4.492 24.525 7.072 25.699 3.385z" fill="#cb9467"/><path d="m878.186 403.353c1.717-5.09-12.7-12.366-28.486-18.481-14.944-5.789-28.57-7.427-29.969-3.783-2.059 5.365 9.916 13.154 24.747 19.223 13.894 5.686 31.895 8.415 33.708 3.041z" fill="#cb9467"/><path d="m867.482 433.305c.882-4.272-14.174-10.109-30.375-14.957-15.338-4.589-28.766-5.739-29.562-2.678-1.171 4.506 11.601 10.81 26.873 15.635 14.305 4.52 32.133 6.509 33.064 2z" fill="#cb9467"/><path d="m855.673 466.846c.882-4.272-14.174-10.109-30.375-14.957-15.338-4.589-28.766-5.739-29.562-2.678-1.171 4.506 11.601 10.81 26.873 15.635 14.306 4.52 32.133 6.51 33.064 2z" fill="#cb9467"/><path d="m623.641 203.295-.448-11.438c-28.667-3.091-52.085-18.401-59.679-40.267-1.849-5.324-2.159-9.246-1.872-25.404.123-6.917-5.357-16.808-7.209-30.111-1.013-7.275-2.561-18.398.504-28.437 7.175-23.503 35.313-53.31 72.883-49.449 30.635 3.149 59.15 26.419 60.9 58.74.652-.33 9.164-7.396 16.12-4.5 3.388 1.411 4.976 3.797 5.552 4.884.784 1.479 3.795 6.478 2.022 16.95-1.529 9.029-5.416 15.026-8.841 18.295-2.656 2.534-6.826 5.679-11.665 2.868-2.464-1.431-4.777-5.741-5.227-10.856 1.288 5.726 4.291 22.55-3.832 41.448-6.885 16.018-26.878 31.047-26.875 31.045.001 0-.884 20.9-.884 20.9.083-1.058-5.533-2.443-11.297-1.411-9.697 1.736-10.994 2.415-20.152 6.743z" fill="#ffb493"/><path d="m629.061 139.173c1.537.027-6.232 17.796-15.751 21.245-10.712 3.88-25.194-3.695-26.774-7.393-1.132-2.65 39.933-13.898 42.525-13.852z" fill="#fff"/><path d="m592.685 125.421c-2.184 1.837-2.383 5.973-.918 8.44 3.237 5.451 18.765 2.507 19.994-.414 1.605-3.816-13.928-12.356-19.076-8.026z" fill="#fa8e79"/><path d="m630.273 138.409c-2.425-3.573-44.151 11.329-44.831 13.811-.837 3.056 19.28-3.502 27.788-6.426 18.87-6.485 17.134-7.251 17.043-7.385z" fill="#fa8e79"/><path d="m655.839 177.193c-3.115 2.251-12.5 11.309-32.548 14.797l.35 11.305c6.712-2.818 21.402-9.523 29.919-5.116z" fill="#f79173"/><path d="m629.115 18.386c.756.087 3.453 19.137 3.453 19.137-16.671.528-76.606 26.817-77.423 29.854 1.676-8.362 23.823-53.73 73.97-48.991z" fill="#f79173"/><circle cx="571.206" cy="140.789" fill="url(#a)" r="14.988"/><circle cx="636.867" cy="119.972" fill="url(#b)" r="14.988"/><path d="m734.938 181.671c14.397 11.786 13.706 35.271-4.619 43.735 4.898 7.423-1.354 33.031-31.461 40.184-9.727 2.311-35.695.78-46.632-14.664-5.016-7.084-4.991-14.874-5.066-17.77-.671-25.859-3.308-118.668-10.849-168.542-4.325-28.606-5.258-39.55-5.258-39.55-11.566 4.494-67.67 25.808-73.662 46.801-2.056 7.204-6.559 14.086 3.038 45.898 1.061 3.517.776 6.636.99 8.558-2.959 36.846 19.713 58.772 61.871 65.669-.419-4.3 8.645 84.225-17.086 96.556-15.684 7.516-34.889-1.68-37.614-2.973-14.979-7.105-28.616-33.562-28.616-33.562-22.459-12.313-37.242-45.63-7.832-78.548 2.244-2.511 1.436-6.16 1.802-9.082 1.645-13.125 1.033-20.728 1.09-23.921.272-15.37-5.936-60.922-3.235-77.698.864-5.366 68.847-60.829 107.126-58.829 22.272 1.164 63.072 30.676 80.464 57.543 6.774 10.465 7.548 113.644 15.549 120.195z"/><path d="m636.16 70.147c-.524-2.701-23.427-3.227-29.338 7.167-4.761 8.371 12.336-2.087 27.019-6.439 2.405-.713 2.396-.33 2.319-.728z"/><path d="m571.667 90.563c-8.508 2.924-14.349 12.814-13.296 12.832.768.014 9.717-4.931 20.171-10.404 4.149-2.172-1.015-4.442-6.875-2.428z"/><path d="m640.461 4.644c-.161-.666 10.187-6.378 19.784-3.176 4.755 1.586 7.581 4.779 9.364 6.767 14.805 16.507 27.914 28.22 27.552 28.547-.397.358-15.423-14.322-31.435-26.309-2.478-1.855-7.445-5.485-14.492-6.407-6.323-.827-10.669 1.003-10.773.578z"/><path d="m697.176 37.325c-.442 0-1.426-.876-5.771-4.752-5.878-5.242-15.716-14.016-25.979-21.7-2.153-1.612-7.197-5.387-14.257-6.312-4.242-.553-7.539.102-9.312.455-1.157.232-1.736.346-1.882-.254h-.001c-.09-.373.215-.653.33-.758 1.369-1.258 10.972-6.056 20.099-3.009 4.828 1.611 7.764 4.885 9.518 6.841 9.369 10.446 17.929 18.851 23.044 23.873 4.56 4.478 4.712 4.671 4.703 5.066l-.004.216-.168.164c-.107.095-.191.17-.32.17zm-49.308-33.979c1.058 0 2.205.063 3.43.224 7.32.958 12.511 4.843 14.728 6.502 8.161 6.111 16.047 12.901 21.899 18.07-5.023-4.989-11.641-11.715-18.688-19.573-1.856-2.071-4.572-5.1-9.149-6.627-7.217-2.407-14.797.364-17.83 1.977 1.328-.256 3.244-.573 5.61-.573z"/><path d="m617.266 26.391c.372.714-25.394 7.675-43.302 31.26-3.788 4.989-19.963 27.079-13.805 46.68 2.595 8.258 6.897 9.573 9.59 18.791 3.621 12.392-.516 24.121-1.442 26.955-1.276 3.907-2.632 7.324-2.981 7.229-.666-.182 4.613-12.455 2.751-26.02-1.221-8.9-4.766-12.748-7.301-18.75-8.326-19.712 1.122-45.618 13.292-60.841 17.027-21.296 42.833-26.004 43.198-25.304z"/><path d="m565.372 157.819c-.064 0-.122-.016-.178-.031-.656-.179-.521-.683.128-3.102 1.173-4.369 3.614-13.461 2.26-23.333-.842-6.135-2.842-9.908-4.776-13.556-.845-1.594-1.719-3.242-2.49-5.068-8.098-19.172.593-45.374 13.363-61.347 15.997-20.009 40.294-25.841 43.462-25.547.104.01.42.041.568.325l.102.195-.074.239c-.126.348-.413.479-2.622 1.396-6.505 2.703-26.299 10.927-40.753 29.963-6.008 7.913-19.372 28.257-13.727 46.228 1.222 3.884 2.803 6.168 4.477 8.587 1.815 2.623 3.692 5.335 5.117 10.213 2.352 8.046 1.899 17.109-1.343 26.938l-.103.312c-2.234 6.843-2.971 7.588-3.411 7.588zm48.921-130.57c-7.146 1.571-26.325 7.862-39.833 24.758-12.586 15.742-21.169 41.521-13.223 60.334.754 1.785 1.617 3.413 2.452 4.988 1.975 3.726 4.018 7.578 4.883 13.889 1.184 8.624-.462 16.625-1.706 21.531.296-.822.619-1.765.966-2.827l.104-.315c3.178-9.632 3.626-18.496 1.333-26.344-1.381-4.723-3.211-7.367-4.98-9.924-1.643-2.374-3.342-4.827-4.607-8.856-5.786-18.415 7.781-39.095 13.883-47.132 14.306-18.843 33.751-27.197 40.728-30.102z"/><path d="m631.054 25.064s16.682 49.061 19.416 158.891c1.126 45.257 24.775 80.728 24.775 80.728s-21.436-1.926-30.329-25.734c-11.737-31.422.032-63.589-2.623-94.305-8.285-95.808-11.239-119.58-11.239-119.58z" fill="#78aed6"/><path d="m534.707 58.989s-8.117 4.51-7.226 20.31c.379 6.722-2.283 25.899 3.988 92.37.668 7.079-12.904 8.548-16.361 32.321-5.192 35.705 24.704 47.823 24.707 47.828 6.005-18.91 5.253-35.916 4.67-55.435-4.334 49.95-10.211 44.202-10.211 44.202s-22.345-14.915 5.743-59.967c4.852-13.49-5.31-121.629-5.31-121.629z" fill="#78aed6"/><circle cx="573.33" cy="113.604" r="6.028"/><circle cx="618.338" cy="97.412" r="6.462"/><path d="m687.681 82.893c4.897-16.056 25.68-17.614 25.278 5.06-.204 11.527-9.32 32.525-18.988 30.412-7.658-1.672-12.667-14.561-6.29-35.472z" fill="#f79173"/><path d="m1017.739 651.958c-5.261-.913-19.111 21.397-18.113 41.259.674 13.408 10.814 19.865 15.156 21.544 2.171.84 6.447-6.154 1.443-14.509-7.421-12.392 5.359-15.251 3.67-18.977-4.489-9.903 2.056-28.586-2.156-29.317z" fill="#ffb493"/><path d="m1011.649 686.165-52.677 226.847 58.636 49.345 34.843-10.077c-15.762-94.011-25.026-186.795-32.554-274.517l33.479-9.584c33.216 98.275 51.058 186.674 83.366 267.314l52.771-11.085c-38.369-59.057-80.456-148.385-126.294-268.227l-35.496 12.177c-8.07 2.767-14.145 9.497-16.074 17.807z" fill="#d09433"/><path d="m968.058 925.032c-11.307-14.346-26.697-44.837-32.379-65.433-2.771-10.045.025-18.561 7.718-16.203 15.574 4.772 26.693 21.735 26.693 21.735s-3.016-5.251 1.757-26.243c3.427-15.074 8.129-18.483 12.639-18.431 8.864.103 18.832 43.673 18.832 43.673s3.574-27.259 8.013-29.65c8.35-4.498 9.599 14.699 13.623 30.852 9.697 38.931-5.609 106.98-5.609 106.98s-25.572-14.656-51.287-47.28z" fill="#ccff80"/><path d="m1041.59 957.661s-14.8-84.355 3.378-98.581c7.967-6.235 11.342-2.29 14.202 1.732 3.018 4.243 3.046 16.941 3.046 16.941 2.496-17.288 16.825-15.729 17.229.801 3.297-5.663 5.656-3.996 7.613.801 1.383-11.27 8.45-36.165 18.832-34.458 5.025.827 12.516 14.435 15.638 30.05 2.179 10.901 19.27 64.282-8.096 85.759-14.93 11.718-71.842-3.045-71.842-3.045z" fill="#89a757"/><path d="m1069.428 889.973s10.822 42.08 14.933 47.074c1.222 1.485 4.777.172 2.296-4.603-3.763-7.243-17.229-42.471-17.229-42.471z" fill="#6d8846"/><path d="m1098.477 862.928s-4.141 48.974-7.797 73.24c-.719 4.775 3.154 3.996 3.785 3.154 13.15-17.533 22.474-59.158 21.04-54.758-13.641 41.836-22.391 54.34-21.199 49.433 3.046-12.539 4.171-71.069 4.171-71.069z" fill="#6d8846"/><path d="m1013.735 856.918s-11.704 65.723-4.541 91.168c.619 2.199 4.274 1.312 3.815.345-8.537-17.982.726-91.513.726-91.513z" fill="#87a857"/><path d="m980.078 837.886c2.289 31.975 4.737 67.358 11.219 83.006l-47.88-62.171c1.967.21 52.634 80.065 56.295 76.328 1.296-1.323.452-7.533-3.406-16.227-10.383-23.4-15.657-76.843-16.228-80.936z" fill="#87a857"/><path d="m1202.247 957.662-74.953-6.772c-4.499-.406-7.799-4.966-7.332-10.133l12.22-136.565c.467-5.167 4.53-9.062 9.029-8.655l74.953 6.772c4.499.406 7.798 4.966 7.332 10.133l-12.22 136.565c-.466 5.167-4.53 9.061-9.029 8.655z" fill="#3a5873"/><ellipse cx="1178.525" cy="801.49" fill="#97c7f3" rx="12.781" ry="45.516" transform="matrix(.09 -.9959 .9959 .09 274.2428 1903.1156)"/><path d="m1203.181 937.72s-33.023 9.287-51.453-.195c-2.335-.385-3.999-3.682-3.671-7.274l5.631-92.165c.289-3.166 2.042-5.521 4.111-5.521 17.198 5.199 35.55 3.86 51.25 1.952 2.445 0 4.36 3.247 4.134 7.008l-5.428 90.408c-.214 3.563-4.574 5.787-4.574 5.787z" fill="#fff"/><path d="m999.841 1243.534-44.297-76.088 3.428-254.434 57.732 47.21z" fill="#d09433"/><path d="m1227.372 1171.69-227.53 71.844 16.863-283.312c47.783-12.689 120.438-16.224 211.149-55.463 3.144-.718 6.238 1.344 6.573 4.382l11.263 236.266c.566 11.903-6.955 22.694-18.318 26.283z" fill="#f5bb54"/><path d="m1027.758 1114.951c1.655-19.586 21.993-37.138 41.67-39.667 17.864-2.295 21.579 9.54 44.074 12.421 19 2.433 27.449-4.588 67.714-18.431 39.857-13.702 58.243-14.664 68.114-15.226 2.095-.119 12.02 79.379-18.03 122.606-5.439 7.824-25.081 27.025-56.495 34.859-39.821 9.93-72.552-6.213-84.542-13.222-19.752-11.547-30.168-25.757-44.475-45.276-12.699-17.327-19.029-26.231-18.03-38.064z" fill="#f95d1f"/><circle cx="1152.143" cy="1121.798" fill="#bd4719" r="29.641"/><ellipse cx="1074.561" cy="1115.259" fill="#bd4719" rx="39.396" ry="40.555"/><ellipse cx="1118.596" cy="1159.223" fill="#bd4719" rx="24.926" ry="26.972"/><ellipse cx="1148.568" cy="1119.606" fill="#fa5d1f" rx="29.641" ry="27.23"/><ellipse cx="1226.005" cy="1105.833" fill="#bd4719" rx="27.159" ry="28.52"/><circle cx="1225.544" cy="1101.456" fill="#fa5d1f" r="24.588"/><ellipse cx="1213.968" cy="1157.195" fill="#bd4719" rx="26.147" ry="27.874"/><ellipse cx="1132.454" cy="1080.66" fill="#bd4719" rx="32.14" ry="30.352"/><circle cx="1130.667" cy="1076.057" fill="#fa5d1f" r="30.352"/><ellipse cx="1215.88" cy="1154.916" fill="#fa5d1f" rx="26.667" ry="23.137"/><ellipse cx="1068.678" cy="1112.785" fill="#fa5d1f" rx="37.566" ry="38.081"/><circle cx="1115.865" cy="1157.51" fill="#fa5d1f" r="24.082"/><ellipse cx="1183.15" cy="1079.306" fill="#bd4719" rx="26.916" ry="25.463"/><ellipse cx="1181.997" cy="1074.704" fill="#fa5d1f" rx="24.494" ry="25.463"/><ellipse cx="1221.212" cy="1057.52" fill="#bd4719" rx="27.613" ry="30.377"/><ellipse cx="1220.849" cy="1053.995" fill="#fa5d1f" rx="24.776" ry="26.852"/><ellipse cx="1160.833" cy="1185.789" fill="#bd4719" rx="28.379" ry="28.279"/><ellipse cx="1160.833" cy="1183.995" fill="#fa5d1f" rx="28.379" ry="24.049"/><path d="m1253.483 1107.381s-.001.001-.001.001c.278-8.551.076-17.484-.453-26.888-3.631-64.535-16.469-90.469-51.66-156.663-10.593-19.926-21.623-40.371-47.68-85.744-47.314-82.387-68.916-154.706-68.916-154.706-23.969-4.116-39.408-6.062-61.501-9.701-4.323-.712-8.176 2.798-7.853 7.167 2.068 27.997 7.989 119.424 3.95 200.913-5.303 106.98-6.57 161.872 2.899 219.569 5.902 35.963 35.393 96.138 88.549 113.391 43.239 14.034 99.784-2.244 124.209-40.869 10.813-17.1 15.954-35.096 17.776-55.173l.001-.003c0-.001 0-.001 0-.002.335-3.689.555-7.449.68-11.286zm-55.708 70.777c-3.073-14.161-6.646-28.31-10.637-42.507 13.323.784 24.375-.287 33.267-2.115 3.265 9.478 6.532 19.002 9.799 28.528-7.586 7.385-18.082 13.794-32.429 16.094zm21.36 5.837c-5.744 5.37-11.761 9.679-17.556 13.121-.464-2.514-.944-5.027-1.441-7.539 6.269-.991 12.889-2.719 18.997-5.582zm-136.698 3.398c-6.336-11.618-12.095-30.524-17.166-53.388 7.051 5.174 14.791 10.573 22.892 15.897 5.261 18.107 11.314 35.648 18.233 52.573-6.045-2.709-12.119-6.174-18.018-10.595-1.877-1.406-3.85-2.841-5.941-4.487zm-19.399-63.91c-2.693-13.276-5.171-27.611-7.413-42.442 5.764 4.105 12.155 8.445 19.061 12.818 3.024 15.541 6.52 30.745 10.534 45.58-7.994-5.378-15.463-10.813-22.182-15.956zm-37.165-93.074c.111-3.954.285-8.203.504-12.707 3.382 2.589 8.97 6.708 16.3 11.567 1.298 13.043 2.741 25.853 4.361 38.304-9.42-6.605-16.576-12.108-20.624-15.31-.531-7.741-.73-15.154-.541-21.854zm109.827-156.493c9.59 14.74 19.429 30.341 29.229 49.177-2.088 5.454-4.982 10.727-8.97 15.295-1.044 1.196-2.171 2.327-3.361 3.402-8.456-1.786-14.235-5.695-17.741-9.319 1.783-11.177 1.731-42.162.843-58.555zm84.316 100.469c6.117 12.663 14.791 32.418 21.271 56.68l-1.172-.068s-.872 5.756-11.049 12.069c-7.329-19.451-15.637-39.433-24.466-58.893 7.331-4.273 12.774-7.943 15.416-9.788zm.448 73.166c-5.163 2.279-11.57 4.483-19.5 6.379-7.535-19.895-15.02-39.021-22.41-56.655 6.383-2.691 12.372-5.615 17.739-8.472 8.868 20.125 17.081 40.146 24.171 58.748zm-124.101-83.876c6.092.216 14.607.022 23.914-1.319 4.508 11.993 8.893 23.849 13.138 35.551-1.662.202-3.319.356-4.969.448-10.247.567-20.719-1.465-30.876-5.025-1.601-10.476-2.935-20.457-3.946-29.696.907.059 1.82.078 2.739.041zm28.053-1.982c8.8-1.568 18.07-4.214 26.512-8.526 5.201 10.717 10.435 22.421 15.695 34.91-8.94 3.966-18.503 7.286-28.047 9.04-4.608-11.65-9.34-23.451-14.16-35.424zm4.03 46.679c2.87.096 5.767.022 8.673-.191 6.277 17.512 12.218 34.654 17.763 51.353-2.934.104-5.955.178-9.088.213-12.089.133-24.747-2.151-37.156-5.804-3.687-17.646-6.974-35.179-9.662-51.703 9.687 3.5 19.649 5.805 29.47 6.132zm-26.432 43.483c-11.307-3.78-22.275-8.557-32.271-13.527-2.025-17.097-3.355-34.664-3.99-52.7 8.391 5.265 17.561 10.267 27.099 14.235 2.779 16.883 5.839 34.431 9.162 51.992zm-36.245-15.535c-6.196-3.19-11.96-6.411-17.13-9.454-2.144-19.678-3.857-39.053-5.099-56.904 5.134 4.019 11.029 8.353 17.476 12.615 1.112 18.25 2.679 36.177 4.753 53.743zm.917 7.449c1.756 13.829 3.837 27.426 6.253 40.783-6.691-4.084-12.918-8.12-18.553-11.924-1.844-12.843-3.514-25.969-4.997-39.026 5.177 3.257 10.979 6.709 17.297 10.167zm4.001 2.152c10.004 5.29 21.153 10.492 33.048 14.906 2.984 15.348 6.168 30.616 9.539 45.366-12.589-5.769-24.618-12.272-35.562-18.769-2.826-13.507-5.163-27.345-7.025-41.503zm39.934 17.343c15.432 5.187 31.929 8.884 48.656 9.671 5.817 17.975 11.137 35.397 15.876 52.174-17.789-2.156-36.082-7.864-53.55-15.245-3.858-15.068-7.566-30.815-10.982-46.6zm32.082-55.66c9.826-1.309 19.654-4.097 28.877-7.55 7.074 17.381 14.191 36.066 21.335 55.583-8.628 1.617-18.766 2.874-30.669 3.558-6.143-16.946-12.693-34.112-19.543-51.591zm30.592-22.653c-5.559-12.782-11.058-24.614-16.476-35.171 4.129-2.663 7.955-5.807 11.292-9.522 1.128-1.256 2.177-2.882 3.151-4.765 6.518 12.99 12.93 26.47 19.091 40.035-5.117 3.122-10.883 6.377-17.058 9.423zm-86.354-22.547c.01.064.019.128.029.192s0 0 0 .001c1.377 9.099 2.856 18.602 4.432 28.378-9.124-3.777-17.891-8.651-25.899-13.82-.21-9.119-.247-18.354-.106-27.709 4.96 4.264 12.7 10.336 21.544 12.958zm-27.606-18.699c.266 10.136.662 20.181 1.186 30.133-6.581-4.515-12.534-9.12-17.603-13.314-1.236-19.909-1.835-37.492-1.736-50.878 4.649 13.828 10.585 25.719 18.153 34.059zm-26.764-68.719c1.184 26.156 2.518 53.258 4.229 80.321-2.481-2.182-4.624-4.148-6.37-5.794 1.281-23.55 2.285-48.984 2.141-74.533-.001.002-0 .004-0 .006zm4.862 90.061c1.301 19.488 2.814 38.892 4.622 57.849-6.771-4.181-12.089-7.768-15.428-10.094.836-15.676 2.124-34.13 3.29-54.193 2.107 1.871 4.635 4.055 7.516 6.438zm10.679 110.523c1.993 14.441 4.237 28.35 6.776 41.533-9.855-7.878-17.469-14.576-21.889-18.586-2.783-12.718-4.88-26.589-6.073-39.828 4.009 3.449 11.354 9.56 21.186 16.881zm31.72 21.495c10.945 6.699 23.022 13.343 35.79 19.192 4.08 17.107 8.419 33.346 12.995 47.997-12.262-5.652-24.236-12.454-35.393-19.57-5.185-15.385-9.647-31.26-13.392-47.619zm44.431 22.982c17.16 7.168 35.353 12.667 53.595 14.792 4.183 15.325 7.848 30.071 10.936 44.175-.482.017-.96.037-1.449.044-15.633.25-32.254-3.892-48.63-10.451-4.823-14.23-9.723-30.792-14.452-48.56zm88.494 3.375c-9.094 2.245-18.645 2.962-28.423 2.479-5.137-17.471-10.891-35.04-17.134-52.819 8.731-.087 17.488-1.016 26.154-3.006 1.513-.347 2.981-.703 4.416-1.065 6.252 17.358 12.521 35.265 18.799 53.411-1.256.347-2.526.683-3.812 1zm-6.949-56.621c7.65-2.289 13.979-4.745 19.182-7.156 7.627 20.784 13.601 39.264 17.192 53.384-4.607 2.093-10.376 4.489-16.855 6.691-6.515-17.786-13.031-35.577-19.519-52.919zm44.11 40.25c-4.213-15.985-9.808-33.577-16.382-51.857 6.019-3.54 9.592-6.644 11.451-8.509 3.804 18.432 6.009 38.86 4.931 60.366zm-37.018-147.117c-.009.007-5.618 4.572-14.635 10.556-7.474-15.82-15.227-31.104-22.999-45.267 2.509-8.205 4.19-17.439 5.135-23.522 8.455 12.703 17.795 28.764 32.499 58.233zm-42.958-73.13c.286 5.675.286 15.358-1.893 25.603-11.422-19.74-22.707-36.636-33.021-48.771-.926-11.191-2.558-23.684-5.045-37.691 4.367 8.39 8.823 16.181 13.287 22.96 11.463 17.406 19.428 27.962 26.672 37.899zm-91.18-189.755s10.692 34.214 25.978 72.616c11.308 47.489 32.747 156.917-6.045 173.497-43.167 18.45-64.354-102.272-67.865-163.441-2.704-52.68-5.094-84.818-5.094-84.818zm-34.858 435.932c-2.986-6.186-5.72-14.11-8.113-22.992 4.853 4.701 12.246 10.932 21.267 17.855 3.729 17.592 8.044 33.697 13.065 47.8-7.312-8.451-15.885-21.255-26.219-42.663zm75.77 74.334c-8.53-16.553-16.063-33.779-22.595-51.682 11.58 7.278 23.618 14.19 35.224 19.916 4.829 14.129 9.904 26.375 15.205 35.956-8.039-.203-17.667-1.275-27.834-4.19zm37.977 4.008c-4.51-6.115-9.524-16.878-14.719-30.823 13.028 5.688 25.101 9.447 34.816 9.985 3.272.279 8.02.416 13.477.068.747 3.719 1.441 7.377 2.099 10.996-11.903 5.764-21.613 7.874-24.01 8.36-1.069.218-5.316 1.02-11.663 1.414zm87.685-71.526c-1.679 3.883-4.149 8.667-7.651 13.549-2.713-7.338-5.428-14.725-8.145-22.133 7.082-2.182 12.133-4.681 15.25-6.494 1.1 6.006 1.455 10.587.958 13.437-.108.447-.219.887-.331 1.324v.001c-.027.104-.054.211-.081.316z" fill="#fff3eb"/><path d="m1018.28 882.444c-1.779 35.883-2.032 65.9-2.649 92.134 5.22-48.453 14.716-98.573 20.879-143.033-3.011-19.079-4.795-36.421-5.649-51.309-2.704-52.68-4.546-87.95-4.546-87.95h3.805c-1.833-8.641-2.312-11.803-.738-16.758-2.331-.371-4.72-.756-7.197-1.164-4.323-.712-8.176 2.798-7.853 7.167 2.066 27.997 7.988 119.424 3.948 200.913z" fill="url(#c)"/><path d="m1253.028 1080.493c-3.631-64.535-16.469-90.469-51.66-156.663-10.593-19.926-21.623-40.371-47.68-85.744-47.314-82.387-68.916-154.706-68.916-154.706-5.557-.954-10.653-1.791-15.483-2.56 2.944 5.352 5.847 10.752 8.701 16.198l.772.031s.416 1.33 1.198 3.752c23.846 46.016 44.398 95.082 60.511 143.709.932 1.503 1.866 2.975 2.8 4.393 11.463 17.407 19.427 27.963 26.672 37.899.286 5.675.286 15.358-1.893 25.603-4.642-8.023-9.26-15.565-13.801-22.52 2.368 8.595 4.583 17.142 6.637 25.619 1.348 2.474 2.696 4.997 4.044 7.587-.444 1.161-.934 2.311-1.454 3.45 1.156 5.083 2.251 10.136 3.287 15.157.458-.471.909-.951 1.35-1.442 1.128-1.256 2.177-2.882 3.151-4.765 6.518 12.99 12.93 26.47 19.091 40.035-4.865 2.969-10.32 6.054-16.15 8.968 1.465 10.489 2.619 20.761 3.445 30.766 5.071 12.923 10.161 26.431 15.265 40.376-4.226.792-8.818 1.497-13.798 2.091-.096 5.019-.3 9.933-.61 14.742 4.964-.486 9.921-1.263 14.848-2.395 1.513-.347 2.981-.703 4.416-1.065 6.252 17.358 12.521 35.265 18.799 53.411-1.256.347-2.526.683-3.811 1-9.094 2.245-18.645 2.962-28.423 2.479-2.724-9.265-5.627-18.559-8.679-27.896-.956 5.818-2.11 11.419-3.471 16.784 1.011 3.464 2.005 6.909 2.969 10.32-1.886-.229-3.779-.505-5.675-.812-.956 3.01-1.985 5.934-3.089 8.766 3.815.727 7.64 1.33 11.468 1.776 4.183 15.325 7.848 30.071 10.936 44.175-.482.016-.96.037-1.449.044-14.502.232-29.854-3.32-45.072-9.071-2.938 2.683-6.059 5.116-9.377 7.276 4.651 13.404 9.527 25.052 14.612 34.242-8.038-.204-17.667-1.276-27.833-4.191-3.416-6.629-6.665-13.371-9.761-20.216-3.053.773-5.995 1.364-8.832 1.792 1.713 4.57 3.482 9.101 5.315 13.585-6.045-2.709-12.119-6.174-18.018-10.595-1.004-.752-2.038-1.516-3.1-2.312-8.507-.645-15.833-2.991-22.157-6.484 12.914 13.955 28.809 25.505 47.694 31.634 43.239 14.034 99.784-2.244 124.209-40.869 10.813-17.1 15.954-35.096 17.776-55.173l.001-.003c0-.001 0-.001 0-.002.335-3.689.555-7.449.68-11.286l.001-.005s-.001.001-.001.001c.277-8.548.074-17.482-.455-26.886zm-12.913-49.496c-.001.001-.874 5.757-11.049 12.069-7.329-19.451-15.637-39.433-24.466-58.893 7.331-4.273 12.774-7.942 15.416-9.787 6.117 12.663 13.618 32.349 20.099 56.611zm-64.848-105.774c2.509-8.205 4.19-17.439 5.135-23.522 8.455 12.703 17.795 28.764 32.499 58.232-.009.007-5.618 4.572-14.635 10.556-7.475-15.82-15.228-31.104-22.999-45.266zm3.287 72.052c6.383-2.691 12.372-5.615 17.739-8.472 8.867 20.125 17.081 40.146 24.171 58.747-5.163 2.279-11.57 4.483-19.5 6.379-7.534-19.894-15.019-39.02-22.41-56.654zm27.254 69.526c7.65-2.289 13.979-4.745 19.182-7.156 7.627 20.784 13.601 39.264 17.192 53.384-4.607 2.093-10.376 4.489-16.855 6.691-6.515-17.786-13.031-35.577-19.519-52.919zm-36.494 143.11c-1.069.217-5.316 1.019-11.663 1.413-4.51-6.115-9.524-16.878-14.719-30.823 13.028 5.688 25.101 9.447 34.816 9.985 3.272.279 8.02.416 13.477.068.747 3.719 1.441 7.377 2.099 10.996-11.904 5.765-21.613 7.874-24.01 8.361zm32.265-12.795c-.464-2.514-.944-5.027-1.441-7.539 6.27-.991 12.89-2.719 18.997-5.582-5.744 5.37-11.761 9.679-17.556 13.121zm-3.804-18.958c-3.073-14.161-6.646-28.311-10.637-42.507 13.323.784 24.375-.287 33.267-2.115 3.265 9.478 6.532 19.002 9.799 28.528-7.586 7.385-18.082 13.794-32.429 16.094zm47.973-40.003c-.108.447-.219.887-.331 1.324-.027.105-.053.212-.081.317-1.679 3.883-4.149 8.667-7.651 13.549-2.713-7.338-5.428-14.725-8.145-22.133 7.082-2.182 12.133-4.681 15.25-6.494 1.1 6.007 1.455 10.588.958 13.437zm4.17-31.104c-4.213-15.985-9.808-33.577-16.382-51.857 6.019-3.54 9.592-6.644 11.451-8.51 3.804 18.433 6.009 38.861 4.931 60.367z" fill="url(#d)"/><path d="m1010.385 659.046c-1.223 3.678-.779 6.772 4.258 15.22 22.281 37.364 27.781 66.932 33.228 70.062 2.707 1.555 8.506-.058 10.055-2.976 0 0 6.009 6.106 14.168-.365 8.683 1.366 11.976-17.058 11.42-22.391 4.006-.497 7.123-1.715 7.417-6.052 1.161-17.16-7.158-56.097-29.631-70.264-9.758-8.136-46.66 3.976-50.915 16.766z" fill="#ffb493"/><path d="m1058.013 741.411c-.561.003.527-24.263-1.208-34.042-1.766-9.957-8.245-23.586-8.882-25.338-.827-2.273 8.591 15.478 9.962 23.119 1.771 9.868.763 36.258.128 36.261z" fill="#f79173"/><path d="m1072.094 740.988c-.583-.013.231-22.751-2-33.255-3.258-15.338-11.424-32.394-11.424-32.394-.692-1.181 9.095 16.884 11.677 28.064 2.54 11 2.409 37.6 1.747 37.585z" fill="#f79173"/><path d="m1083.515 718.597c-.446-.189-1.709-24.391-12.736-47.282-.63-1.309 5.042 9.484 8.159 16.639 4.874 11.189 5.257 30.931 4.577 30.643z" fill="#f79173"/></svg>