<svg xmlns="http://www.w3.org/2000/svg" viewBox="0 0 3000 3000" width="3000" height="3000"><g transform="translate(703.0 246.0) rotate(-28.680702342126928 396.0 1038.5) scale(1.3657150345912166 1.3648669961097677)"><svg width="579.916" height="1521.76" viewBox="0 0 579.916 1521.76"><path d="M47.869 39.752 35.795 1484.865c-2.971 19.786 36.244 36.598 61.149 27.177l451.84-127.487c17.033-6.766 22.426-19.452 21.951-35.122l2.634-1159.024c-.75-24.205-11.397-35.985-27.219-41.268L96.276 11.607C76.224 3.384 46.21 15.658 47.869 39.752z" fill="#fff"/><path d="M579.916 202.922c0-15.932-2.019-45.728-34.124-59.487C511.937 128.926 135.095 8.138 108.309 2.279c-24.46-5.351-45.099-.764-68.031 8.408C13.525 21.898 5.424 33.244 3.383 61.224 1.633 85.219 0 1413.593 0 1437.346c0 26.914 6.177 50.301 34.622 70.176 24.202 16.91 45.413 15.525 68.506 12.057 0 0 203.259-49.14 427.78-122.8 12.025-3.945 29.334-9.366 40.157-26.104 8.192-12.669 6.411-45.045 6.411-45.045 2.308-1047.246 2.44-1047.237 2.44-1122.708zm-16.557 1139.782c-.052 16.977-2.363 28.723-29.696 41.461-39.645 18.475-422.967 119.12-430.049 120.195-7.081 1.076-25.968 4.371-37.073-6.244-9.89-9.453-8.754-25.305-8.585-29.268 1.79-41.929.016-1348.544 2.634-1406.634.416-9.222-.412-26.334 15.942-40.06 9.745-8.178 24.906-9.706 35.277-6.184 50.918 17.292 118.733 37.002 126.031 41.433 7.298 4.43-8.989 36.432 23.781 47.998 48.289 17.043 50.711 17.892 127.651 37.008 5.052 1.255 13.647 2.215 20.082-3.894 7.347-6.975 4.689-21.764 8.797-23.424s112.934 36.992 121.454 40.621c9.463 4.031 27.229 11.916 27.229 46.404 0 93.849-3.605 1183.156-3.475 1140.588z" fill="#83b3c1"/><path d="m576.723 177.609-12.062 5.876c1.361 5.153 2.173 11.284 2.173 18.632 0 93.848-3.605 1183.156-3.475 1140.588-.052 16.977-2.363 28.723-29.696 41.461-39.645 18.475-422.967 119.12-430.049 120.195-7.081 1.076-25.968 4.371-37.073-6.244-9.89-9.453-8.754-25.305-8.585-29.268.807-18.914.89-295.179.977-598.096L.638 979.51C.241 1226.139 0 1428.211 0 1437.346c0 26.914 6.177 50.301 34.622 70.176 24.202 16.91 45.413 15.525 68.506 12.057 0 0 203.259-49.14 427.78-122.8 12.025-3.945 29.334-9.366 40.157-26.104 8.192-12.669 6.411-45.045 6.411-45.045 2.308-1047.246 2.44-1047.236 2.44-1122.708 0-6.719-.37-15.905-3.193-25.313z" fill="#9ed4dc"/></svg></g><g transform="translate(1446.0 371.0) rotate(0.0 584.0 1168.0) scale(2.8057768254364808 2.802451185043356)"><svg width="416.284" height="833.556" viewBox="0 0 416.284 833.556"><path d="M40.33 332.262S195.269 25.32 211.565 31.916c36.906 14.936-55.764 292.8-55.764 292.8l-45.026 12.258 91.098-264.083L68.246 338.576z" fill="#E6524C"/><path d="m291.713 0 120.708 279.938-38.411 19.671L269.671 21.035z" fill="#B31510"/><path d="M62.09 50.859 51.204 53.99c-5.426 1.561-11.09-1.572-12.65-6.998l-5.698-19.809c-1.561-5.426 1.572-11.09 6.998-12.65l10.886-3.131c5.426-1.561 11.09 1.572 12.65 6.998l5.698 19.809c1.561 5.425-1.572 11.089-6.998 12.65z" fill="#FFC673"/><path d="m193.178 270.976-11.858-31.219c-13.15-34.622-32.05-52.426-58.438-59.933L73.376 37.938c-1.25-3.582-4.451-5.665-7.231-4.704L39.1 42.585c-2.721.941-4.083 4.473-3.109 8.061l38.664 142.461c-15.987 18.455-24.042 50.069-18.27 78.139l7.263 31.445c10.901 47.199 44.976 82.581 73.934 76.771l32.438-6.509c30.304-6.081 41.259-54.319 23.158-101.977z" fill="#1e0808"/><path d="m183.552 322.92-85.777 24.675-22.008-76.507c22.547-2.673 61.476-11.991 85.777-24.675z" fill="#fff"/><path d="M179.549 310.117c-15.483-29.476 37.84-98.3 60.736-116.404 22.74-17.981 57.547-24.456 70.943-15.941 4.32 2.746 5.757 6.741 4.742 10.855-1.079 4.373-7.768 5.446-7.768 5.446s18.326-4.029 34.524 1.439c17.809 6.011 31.034 27.099 29.374 39.18-1.671 12.157-11.954 13.01-11.954 13.01s10.679 4.75 15.773 13.791c.741 1.316 5.055 8.972 2.548 15.916-2.358 6.533-12.417 10.475-12.417 10.475s-160.529 71.678-186.501 22.233z" fill="#FFD560"/><path d="M198.046 308.497c25.146-68.105 91.005-108.98 111.115-114.701C245.805 219.53 206.772 298.728 208.014 300c.031.032.084.042.159.031 0 0 15.899-39.603 99.167-63.173 21.813-5.031 44.011-4.047 44.011-4.047-15.454 1.811-29.623 4.013-38.823 7.723 14.179-1.745 25.205.161 35.406 3.023-100.161 1.44-131.969 62.527-131.969 62.527s-10.961 1.313-17.919 2.413z" fill="#ce985d"/><path d="M312.601 178.767c-1.823.328-2.634 3.807-3.382 7.016-.742 3.183-1.609 6.9-.058 8.013 1.986 1.425 8.26-1.185 9.285-5.882 1.009-4.628-3.45-9.578-5.845-9.147zm55.658 52.214c-4.718 1.077-5.373 8.317-5.421 8.945-.088 1.142-.346 4.47 1.306 5.335 2.05 1.074 5.541-2.429 6.075-2.966 1.813-1.819 5.491-6.529 3.591-9.484-1.084-1.687-3.641-2.266-5.551-1.83zm6.998 35.447c-4.26.245-5.995 7.79-6.395 9.53-.174.756-1.619 7.04.517 8.15 2.212 1.15 6.746-4.037 7.499-4.898 2.365-2.705 4.761-5.446 3.874-8.5-.682-2.355-3.177-4.415-5.495-4.282z" fill="#6a4031"/><path d="M40.33 332.262.028 783.988a7.654 7.654 0 0 0 3.85 7.312l74.497 42.257 29.795-510.473z" fill="#B31510"/><path d="M350.127 805.739 78.374 833.556l29.795-510.473 283.625-51.522c13.441-2.442 25.54 8.532 24.418 22.147L376.204 779.14c-1.153 13.99-12.114 25.169-26.077 26.599z" fill="#E6524C"/><g fill="#FFD662"><path d="M241.104 697.692a88.823 88.823 0 0 1-16.081-1.468c-29.432-5.411-54.256-25.178-69.9-55.66-15.264-29.742-19.962-66.293-13.229-102.919s24.123-69.116 48.966-91.485c25.463-22.926 55.69-32.571 85.126-27.162 29.432 5.41 54.256 25.178 69.9 55.66 15.265 29.742 19.963 66.292 13.23 102.919-6.733 36.626-24.123 69.116-48.967 91.484-20.837 18.762-44.873 28.631-69.045 28.631zm18.897-263.15c-20.009 0-40.121 8.363-57.768 24.252-22.07 19.872-37.562 48.968-43.62 81.926-6.06 32.957-1.928 65.659 11.633 92.082 13.181 25.682 33.726 42.268 57.851 46.702a71.15 71.15 0 0 0 12.889 1.175c46.204.003 90.103-44.666 101.409-106.176 6.059-32.957 1.927-65.659-11.634-92.082-13.181-25.682-33.726-42.268-57.851-46.702a71.224 71.224 0 0 0-12.909-1.177z"/><path d="M278.346 528.965c-1.58-.992 9.177-32.017 19.915-29.932 6.686 1.298 16.92 33.43 10.577 41.001-2.801 3.344-6.503 2.474-9.973-3.67-4.354-7.709-3.762-20.776-6.222-22.09-3.465-1.852-12.984 15.515-14.297 14.691zm-72.12 18.777c-1.964-.887 8.202-40.14 20.291-39.448 10.728.613 24.069 32.734 19.296 42.736-2.108 4.417-6.525 4.982-11.909-1.622-6.755-8.285-6.826-22.523-9.822-23.635-4.219-1.565-16.223 22.707-17.856 21.969zm29.344 23.475c-2.371 1.612 5.739 19.949 15.689 25.608 9.444 5.37 17.312-3.197 21.373-13.877.856-2.251 2.572-9.657.454-9.444-4.084.411-12.435 9.126-17.51 9.397-4.213.224-17.882-13.128-20.006-11.684z"/></g></svg></g><g transform="translate(486.0 1643.0) rotate(-20.453256107436093 614.5 525.5) scale(2.702940464932152 2.705005160357133)"><svg width="454.69" height="388.539" viewBox="0 0 454.69 388.539"><path d="M58.085 388.539h338.519c32.08 0 58.085-26.006 58.085-58.085l-1.259-201.556c0-32.08-23.725-50.649-58.085-58.085L61.741.768a30.005 30.005 0 0 0-8.766-.546C23.289 2.809 0 27.728 0 58.085v272.369c0 32.08 26.006 58.085 58.085 58.085z" fill="#9dd4db"/><path d="m454.69 331.733-.342-56.043C342.385 259.294 302.403 226.192 177.72 25.119l-39.98-8.394c130.54 229.083 205.746 244.009 310.453 263.56C231.064 282.89 145.211 87.275 87.267 6.127c0 0-18.563-5.15-32.907-6.127S24.719 7.452 15.473 18.617c19.273 48.448 69.15 152.399 169.693 223.608 118.121 83.659 231.138 67.177 266.107 60.299-180.496 50-343.898-46.407-450.14-256.138A62.192 62.192 0 0 0-.063 55.38c-.033 5.914-.076 13.962-.124 23.617v252.507c0 28.346 18.876 51.936 43.839 57.046 28.241 4.184 33.476.729 56.974 1.039h299.297c.724 0 1.441-.028 2.158-.059l.639-.018c28.513-1.565 51.97-26.709 51.97-57.779z" fill="#65c2cf"/><path d="m61.885 183.169 353.03 20.585v-19.623l-353.03-28.435zm147.239 46.038 205.791 5.664v-19.624l-207.33-12.858z" fill="#fff"/><path d="m227.935 90.539 186.98 24.147v11.689l-188.814-20.127z"/><ellipse cx="51.09" cy="63.299" fill="#e55551" rx="25.17" ry="19.744" transform="matrix(.0602 -.9982 .9982 .0602 -15.1694 110.4853)"/><ellipse cx="78.096" cy="68.195" fill="#ffa522" rx="25.17" ry="19.744" transform="matrix(.0602 -.9982 .9982 .0602 5.3224 142.0439)"/><g fill="#010202"><path d="M97.863 327.62c-11.005-13.93-12.047-34.685-1.991-50.665 0 0-13.702 6.836-12.63 28.092.77 15.25 14.621 22.573 14.621 22.573zm-18.255 11.501c-13.125-19.346-14.454-48.102-2.589-70.195 0 0-16.234 9.409-14.866 38.859.982 21.13 17.455 31.336 17.455 31.336zm33.25-24.105c-6.764-8.562-7.404-21.317-1.224-31.139 0 0-8.421 4.201-7.762 17.265.473 9.373 8.986 13.874 8.986 13.874z"/></g></svg></g></svg>